<svg width="45" height="52" viewBox="0 0 45 52" fill="none" xmlns="http://www.w3.org/2000/svg">
<path d="M6.46875 52H16.8047V1.58594H6.60938C6.60938 3.87109 5.69531 5.03125 2.53125 5.03125H0.351562V14.1016H6.46875V52ZM19.3772 52H44.303V43.0352H29.8186L37.7288 31.3984C41.5608 25.7734 44.0217 20.8516 44.0217 13.9609C44.0217 4.92578 39.4514 0.882812 31.7873 0.882812C24.0881 0.882812 19.2366 5.17188 19.2366 13.4336V18.7773H29.7834V12.0625C29.7834 10.6211 30.3459 9.67188 31.6116 9.67188C32.8772 9.67188 33.2991 10.7969 33.2991 12.0273V13.1172C33.2991 17.8281 31.5764 21.168 29.3264 25.0703L19.3772 42.4023V52Z" fill="black"/>
</svg>
