<svg width="44" height="32" viewBox="0 0 44 32" fill="none" xmlns="http://www.w3.org/2000/svg">
<path d="M42.8249 9.92415C42.8249 14.9909 38.7175 19.0983 33.6507 19.0983C28.584 19.0983 24.4766 14.9909 24.4766 9.92415C24.4766 4.85741 28.584 0.75 33.6507 0.75C38.7175 0.75 42.8249 4.85741 42.8249 9.92415Z" fill="#FF800A" stroke="black" stroke-width="1.5"/>
<path d="M11.0547 12.8853L11.5887 12.9625L11.8317 12.4809C13.9086 8.36408 18.1792 5.54095 23.1116 5.54095C29.0803 5.54095 34.081 9.67721 35.3943 15.2331C35.5228 15.7769 35.6162 16.3334 35.6709 16.8997V17.5987L36.4039 17.6154C39.9643 17.6965 42.825 20.6023 42.825 24.1725C42.825 27.7946 39.8829 30.7335 36.2492 30.7335H9.74054C4.77418 30.7335 0.75 26.716 0.75 21.7612C0.75 16.8078 4.77426 12.7888 9.74054 12.7888C10.1846 12.7888 10.6228 12.8228 11.0547 12.8853Z" fill="white" stroke="black" stroke-width="1.5"/>
</svg>
