<svg width="220" height="252" viewBox="0 0 220 252" fill="none" xmlns="http://www.w3.org/2000/svg">
<path d="M77.9 12.56C77.9 10.58 76.226 9.14 73.706 9.14C71.204 9.14 69.548 10.58 69.548 12.56C69.548 14.486 71.204 15.89 73.706 15.89C76.154 15.89 77.9 14.486 77.9 12.56ZM81.896 8.384H79.808V24.422H81.896V8.384ZM74.822 23.954V18.536C76.352 18.446 77.954 18.32 79.142 18.158L78.962 16.538C76.694 16.772 72.5 17.024 68.414 17.024L68.72 18.752C69.908 18.752 71.15 18.716 72.68 18.644V23.954H74.822ZM75.794 12.542C75.794 13.496 74.966 14.162 73.706 14.162C72.5 14.162 71.654 13.496 71.654 12.542C71.654 11.57 72.518 10.85 73.706 10.85C74.93 10.85 75.794 11.57 75.794 12.542ZM93.6122 19.796C91.5062 18.878 89.8502 16.952 89.6882 13.856H92.8382V12.2H84.2882V13.856H87.4922C87.3662 16.934 86.0342 19.004 83.4602 20.228L84.7202 21.776C86.5922 20.858 88.2302 18.95 88.6262 17.33C89.1122 18.878 90.9842 20.696 92.5142 21.434L93.6122 19.796ZM96.7802 24.422V8.384H94.6742V24.422H96.7802ZM86.1422 11.03H90.9662V9.356H86.1422V11.03Z" fill="#1C1C1E"/>
<path d="M106.042 22.306H107.173C105.977 20.98 105.002 18.939 105.002 16.911V16.56C105.002 14.48 105.977 12.595 107.173 11.282H106.042C104.794 12.491 103.689 14.324 103.689 16.677V16.898C103.689 19.251 104.794 21.11 106.042 22.306ZM115.297 14.74V19.342H116.636V10.944H115.297V13.635H113.191V14.74H115.297ZM116.883 22.189V21.123H110.409V18.588H109.07V22.189H116.883ZM113.945 16.599C112.606 16.144 111.176 14.701 111.176 12.868V11.594H109.811V12.933C109.811 14.727 108.589 16.287 106.951 16.911L107.77 17.964C108.901 17.509 110.149 16.287 110.5 15.065C111.02 16.183 112.203 17.249 113.178 17.652L113.945 16.599ZM127.492 17.743V10.944H126.218V13.752H125.074V11.152H123.813V17.639H125.074V14.857H126.218V17.743H127.492ZM122.487 13.986H119.51V12.842H122.656V11.776H118.197V17.288L119.276 17.301C120.706 17.288 122.266 17.184 123.254 16.976L123.085 15.936C122.188 16.131 121.018 16.222 119.51 16.222V15.026H122.487V13.986ZM127.492 22.527V18.354H119.601V19.42H126.166V22.527H127.492ZM128.13 22.306H129.261C130.522 21.11 131.614 19.264 131.614 16.898V16.677C131.614 14.337 130.522 12.491 129.261 11.282H128.13C129.326 12.608 130.301 14.649 130.301 16.664V17.015C130.301 19.095 129.326 20.993 128.13 22.306Z" fill="#636366"/>
<path d="M81.068 88.384H78.98V104.422H81.068V96.286H83.372V94.558H81.068V88.384ZM78.188 99.022C75.758 97.474 74.3 94.99 74.3 91.822V89.734H72.122V91.93C72.122 95.134 70.754 97.708 68.144 99.382C68.594 99.886 69.008 100.39 69.44 100.912C71.096 99.94 72.716 97.924 73.238 96.106C73.778 97.852 75.632 99.742 76.946 100.588C77.378 100.066 77.756 99.544 78.188 99.022ZM84.2342 91.336H87.4562C87.4562 93.802 85.9262 95.764 83.6042 96.61L84.8642 98.284C86.4122 97.744 88.0682 96.124 88.5542 94.522C89.2742 96.052 90.8042 97.348 92.0102 97.798L93.1622 96.142C91.3262 95.566 89.6522 93.784 89.6162 91.336H92.6942V89.68H84.2342V91.336ZM97.1222 103.99V102.334H88.1762V98.914H86.0702V103.99H97.1222ZM96.7622 100.012V88.384H94.6742V100.012H96.7622ZM102.095 104.134H103.913L108.197 88.852H106.397L102.095 104.134ZM120.805 90.004H113.605V91.75H118.591C118.537 92.434 118.411 93.1 118.249 93.73L112.813 94.126C112.921 94.738 113.011 95.332 113.101 95.944L117.547 95.458C116.449 97.564 114.613 99.22 112.381 100.246L113.677 101.74C118.465 99.256 120.805 95.404 120.805 90.004ZM125.125 88.384H123.037V104.422H125.125V96.286H127.375V94.54H125.125V88.384ZM134.537 90.31H128.057V100.174H134.537V95.836H136.049V103.684H138.011V88.69H136.049V94.144H134.537V90.31ZM141.215 104.422V88.384H139.199V104.422H141.215ZM132.557 98.572H130.037V91.93H132.557V98.572ZM152.013 100.246L151.833 98.554C149.763 98.932 146.811 99.022 145.281 99.022V95.764H150.483V89.752H143.103V91.426H148.377V94.09H143.175V100.75H144.867C147.585 100.75 150.321 100.57 152.013 100.246ZM155.073 88.384H152.967V104.422H155.073V96.268H157.323V94.54H155.073V88.384Z" fill="#1C1C1E"/>
<path d="M165.042 102.306H166.173C164.977 100.98 164.002 98.939 164.002 96.911V96.56C164.002 94.48 164.977 92.595 166.173 91.282H165.042C163.794 92.491 162.689 94.324 162.689 96.677V96.898C162.689 99.251 163.794 101.11 165.042 102.306ZM174.297 94.74V99.342H175.636V90.944H174.297V93.635H172.191V94.74H174.297ZM175.883 102.189V101.123H169.409V98.588H168.07V102.189H175.883ZM172.945 96.599C171.606 96.144 170.176 94.701 170.176 92.868V91.594H168.811V92.933C168.811 94.727 167.589 96.287 165.951 96.911L166.77 97.964C167.901 97.509 169.149 96.287 169.5 95.065C170.02 96.183 171.203 97.249 172.178 97.652L172.945 96.599ZM186.492 97.743V90.944H185.218V93.752H184.074V91.152H182.813V97.639H184.074V94.857H185.218V97.743H186.492ZM181.487 93.986H178.51V92.842H181.656V91.776H177.197V97.288L178.276 97.301C179.706 97.288 181.266 97.184 182.254 96.976L182.085 95.936C181.188 96.131 180.018 96.222 178.51 96.222V95.026H181.487V93.986ZM186.492 102.527V98.354H178.601V99.42H185.166V102.527H186.492ZM187.13 102.306H188.261C189.522 101.11 190.614 99.264 190.614 96.898V96.677C190.614 94.337 189.522 92.491 188.261 91.282H187.13C188.326 92.608 189.301 94.649 189.301 96.664V97.015C189.301 99.095 188.326 100.993 187.13 102.306Z" fill="#636366"/>
<path d="M81.536 184.242V182.55H72.716V181.56H81.086V177.366H70.52V179.04H78.944V180.03H70.628V184.242H81.536ZM83.372 173.406V171.678H81.086V168.384H78.944V176.412H81.086V173.406H83.372ZM68.63 172.668C68.63 174.846 70.502 176.232 72.788 176.232C75.182 176.232 76.928 174.792 76.928 172.668C76.928 170.472 75.182 168.942 72.788 168.942C70.394 168.942 68.63 170.508 68.63 172.668ZM70.7 172.65C70.7 171.552 71.654 170.67 72.788 170.67C74.066 170.67 74.894 171.534 74.894 172.65C74.894 173.622 74.048 174.504 72.788 174.504C71.564 174.504 70.7 173.712 70.7 172.65ZM96.7622 184.224V178.662H85.8542V184.224H96.7622ZM94.6742 182.568H87.9602V180.264H94.6742V182.568ZM96.7622 177.834V168.384H94.6742V177.834H96.7622ZM92.9102 175.17C91.6682 175.512 88.1222 175.746 86.4302 175.656V174H91.5962V169.338H84.2702V170.994H89.5082V172.416H84.3242V177.348H86.4842C88.6262 177.348 91.6862 177.132 93.1262 176.79L92.9102 175.17Z" fill="#1C1C1E"/>
<path d="M106.042 182.306H107.173C105.977 180.98 105.002 178.939 105.002 176.911V176.56C105.002 174.48 105.977 172.595 107.173 171.282H106.042C104.794 172.491 103.689 174.324 103.689 176.677V176.898C103.689 179.251 104.794 181.11 106.042 182.306ZM115.297 174.74V179.342H116.636V170.944H115.297V173.635H113.191V174.74H115.297ZM116.883 182.189V181.123H110.409V178.588H109.07V182.189H116.883ZM113.945 176.599C112.606 176.144 111.176 174.701 111.176 172.868V171.594H109.811V172.933C109.811 174.727 108.589 176.287 106.951 176.911L107.77 177.964C108.901 177.509 110.149 176.287 110.5 175.065C111.02 176.183 112.203 177.249 113.178 177.652L113.945 176.599ZM127.492 177.743V170.944H126.218V173.752H125.074V171.152H123.813V177.639H125.074V174.857H126.218V177.743H127.492ZM122.487 173.986H119.51V172.842H122.656V171.776H118.197V177.288L119.276 177.301C120.706 177.288 122.266 177.184 123.254 176.976L123.085 175.936C122.188 176.131 121.018 176.222 119.51 176.222V175.026H122.487V173.986ZM127.492 182.527V178.354H119.601V179.42H126.166V182.527H127.492ZM128.13 182.306H129.261C130.522 181.11 131.614 179.264 131.614 176.898V176.677C131.614 174.337 130.522 172.491 129.261 171.282H128.13C129.326 172.608 130.301 174.649 130.301 176.664V177.015C130.301 179.095 129.326 180.993 128.13 182.306Z" fill="#636366"/>
<path d="M73.81 36.06V34.912H70.156V36.06H73.81ZM75.182 37.964V36.844H68.462V37.964H75.182ZM78.962 46.742V45.594H71.99V43.396H70.548V46.742H78.962ZM78.682 43.816V34.632H77.254V38.006H75.448V39.182H77.254V40.596H75.448V41.758H77.254V43.816H78.682ZM74.888 40.61C74.888 39.336 73.642 38.44 71.962 38.44C70.282 38.44 69.036 39.336 69.036 40.61C69.036 41.912 70.296 42.766 71.962 42.766C73.642 42.766 74.888 41.912 74.888 40.61ZM73.53 40.61C73.53 41.268 72.816 41.674 71.962 41.674C71.094 41.674 70.394 41.268 70.394 40.61C70.394 39.952 71.094 39.532 71.962 39.532C72.816 39.532 73.53 39.952 73.53 40.61ZM90.4473 47.106V34.632H89.0753V39.588H87.8433V34.884H86.4853V46.518H87.8433V40.792H89.0753V47.106H90.4473ZM86.1073 43.144C84.7073 42.332 83.7133 40.554 83.7133 38.076V37.25H85.7573V36.102H80.1153V37.25H82.3133V38.118C82.3133 40.596 81.3193 42.402 79.6673 43.494L80.5633 44.46C81.6413 43.788 82.7193 42.36 82.9993 41.128C83.3353 42.318 84.4273 43.648 85.2673 44.18L86.1073 43.144ZM101.65 37.768C101.65 36.382 100.418 35.192 98.5003 35.192C96.6243 35.192 95.3923 36.382 95.3923 37.768C95.3923 39.14 96.6243 40.33 98.5003 40.33C100.376 40.33 101.65 39.14 101.65 37.768ZM104.856 34.632H103.428V47.106H104.856V34.632ZM99.3123 46.742V42.388C100.6 42.332 101.972 42.234 102.924 42.108L102.812 41.016C101.664 41.142 100.32 41.226 98.5983 41.296C97.1703 41.366 95.7703 41.366 94.3143 41.366L94.5383 42.556C95.5323 42.556 96.6383 42.528 97.8703 42.472V46.742H99.3123ZM100.222 37.768C100.222 38.58 99.5503 39.14 98.5003 39.14C97.5063 39.14 96.8343 38.58 96.8343 37.768C96.8343 36.956 97.5063 36.354 98.5003 36.354C99.5223 36.354 100.222 36.956 100.222 37.768ZM113.794 43.62C112.058 42.78 110.658 41.24 110.658 38.72V38.664H113.206V37.53H106.584V38.664H109.174V38.72C109.174 41.24 107.858 42.948 105.954 43.942L106.864 44.992C108.306 44.264 109.622 42.724 109.93 41.45C110.336 42.668 111.792 44.096 113.024 44.684L113.794 43.62ZM116.314 47.106V34.632H114.886V47.106H116.314ZM108.026 36.48H111.75V35.346H108.026V36.48ZM124.747 38.594C124.747 36.844 123.333 35.612 121.485 35.612C119.679 35.612 118.293 36.872 118.293 38.594C118.293 40.288 119.665 41.436 121.485 41.436C123.319 41.436 124.747 40.316 124.747 38.594ZM123.305 38.58C123.305 39.574 122.465 40.218 121.485 40.218C120.533 40.218 119.693 39.574 119.693 38.58C119.693 37.544 120.519 36.844 121.485 36.844C122.493 36.844 123.305 37.502 123.305 38.58ZM127.981 34.632H126.553V47.106H127.981V34.632ZM125.853 42.766C124.775 42.878 123.375 42.976 121.597 43.046C120.141 43.13 118.783 43.13 117.453 43.116L117.677 44.348C120.603 44.334 123.291 44.208 125.965 43.914L125.853 42.766ZM143.65 38.272V37.082H141.816V34.632H140.388V40.82H141.816V38.272H143.65ZM142.236 47.008V45.874H135.236V44.768H141.816V41.478H133.724V42.626H140.388V43.676H133.808V47.008H142.236ZM139.128 38.664C137.658 39 135.88 39.168 134.032 39.168V35.276H132.618V40.386H133.948C135.586 40.358 137.826 40.232 139.352 39.868L139.128 38.664ZM154.113 47.106V34.632H152.727V47.106H154.113ZM152.055 43.102C150.739 42.01 150.179 40.386 150.179 37.922V35.682H148.821V37.992C148.821 40.372 148.149 42.626 146.511 43.844L147.435 44.754C148.275 44.11 149.269 42.626 149.507 41.632C149.773 42.416 150.487 43.466 151.145 44.054L152.055 43.102ZM147.883 41.478C147.183 40.876 146.707 40.106 146.707 37.404V35.836H145.335V37.46C145.335 40.316 144.635 42.136 143.333 43.06L144.257 43.928C145.083 43.284 145.797 42.164 146.063 41.24C146.259 41.702 146.707 42.276 147.099 42.556L147.883 41.478ZM168.62 44.656C168.62 43.158 167.066 42.178 164.364 42.178C161.676 42.178 160.136 43.158 160.136 44.656C160.136 46.126 161.676 47.106 164.364 47.106C167.066 47.106 168.62 46.126 168.62 44.656ZM158.68 36.62H161.27V36.732C161.27 38.58 159.94 40.078 158.19 40.722L159.058 41.842C160.304 41.366 161.648 40.148 162.012 38.93C162.544 40.092 163.776 41.072 164.798 41.478L165.596 40.344C164.14 39.896 162.754 38.524 162.754 36.662V36.62H165.246V35.43H158.68V36.62ZM165.05 38.846H167.08V42.136H168.522V34.632H167.08V37.656H165.05V38.846ZM164.364 43.354C166.128 43.354 167.15 43.83 167.15 44.656C167.15 45.468 166.128 45.944 164.364 45.944C162.642 45.944 161.62 45.468 161.62 44.656C161.62 43.83 162.642 43.354 164.364 43.354ZM179.615 41.814V35.514H178.187V37.53H172.601V35.528H171.173V41.814H174.659V44.376H169.759V45.524H181.029V44.376H176.087V41.814H179.615ZM178.187 40.666H172.601V38.664H178.187V40.666ZM194.612 47.106V34.632H193.184V47.106H194.612ZM184.714 39.966C184.714 42.598 185.904 44.334 187.906 44.334C189.908 44.334 191.07 42.598 191.07 39.98C191.07 37.334 189.908 35.598 187.906 35.598C185.904 35.598 184.714 37.334 184.714 39.966ZM189.712 39.966C189.712 41.968 188.97 43.172 187.906 43.172C186.856 43.172 186.128 41.968 186.128 39.966C186.128 37.964 186.856 36.774 187.906 36.774C188.97 36.774 189.712 37.964 189.712 39.966ZM205.832 37.152C205.832 35.766 204.264 34.8 201.492 34.8C198.748 34.8 197.18 35.766 197.18 37.152C197.18 37.95 197.67 38.594 198.594 39.014V40.652H195.864V41.8H207.134V40.652H204.362V39.042C205.314 38.622 205.832 37.964 205.832 37.152ZM205.832 44.81C205.832 43.396 204.236 42.542 201.492 42.542C198.776 42.542 197.18 43.396 197.18 44.81C197.18 46.252 198.776 47.092 201.506 47.092C204.236 47.092 205.832 46.252 205.832 44.81ZM204.348 37.152C204.348 37.936 203.242 38.412 201.492 38.412C199.714 38.412 198.65 37.936 198.65 37.152C198.65 36.382 199.714 35.892 201.492 35.892C203.284 35.892 204.348 36.382 204.348 37.152ZM204.348 44.824C204.348 45.566 203.242 45.944 201.492 45.944C199.756 45.944 198.65 45.566 198.65 44.824C198.65 44.096 199.756 43.676 201.492 43.676C203.228 43.676 204.348 44.096 204.348 44.824ZM201.506 39.518C202.024 39.518 202.5 39.504 202.934 39.434V40.652H200.022V39.42C200.47 39.504 200.974 39.518 201.506 39.518Z" fill="#838390"/>
<path d="M78.92 127.106V114.632H77.548V119.588H76.218V114.884H74.874V126.504H76.218V120.792H77.548V127.106H78.92ZM74.076 122.22C73.264 122.458 71.682 122.584 70.436 122.584V116.116H69.008V123.774H70.24C71.738 123.76 73.432 123.592 74.272 123.382L74.076 122.22ZM85.881 117.292L84.453 117.432L84.789 120.484C84.187 120.498 83.585 120.512 83.067 120.512L83.263 121.716C84.411 121.702 85.727 121.688 86.945 121.618C88.415 121.548 89.969 121.422 90.879 121.254L90.753 120.162C90.221 120.232 89.619 120.288 88.961 120.33L89.255 117.404L87.869 117.278L87.701 120.4C87.155 120.428 86.623 120.442 86.063 120.456L85.881 117.292ZM93.945 126.112C92.041 125.804 89.927 124.474 89.927 122.696V122.332H88.429V122.696C88.429 124.474 86.371 125.874 84.355 126.098L85.041 127.232C86.847 126.952 88.667 125.678 89.143 124.53C89.717 125.65 91.551 126.924 93.245 127.246L93.945 126.112ZM93.273 122.92V114.632H91.845V122.92H93.273ZM90.361 116.704V115.556H83.459V116.704H90.361ZM104.688 121.87V120.708H102.798L103.316 117.712L101.916 117.516L101.454 120.708H98.8503L98.5983 117.502L97.1703 117.642L97.5063 120.708H95.5743V121.87H104.688ZM105.794 125.44V124.306H94.5243V125.44H105.794ZM104.702 116.802V115.654H95.5603V116.802H104.702ZM113.458 122.654C112.002 122.962 110.042 123.032 108.18 123.032V120.442H112.212V119.308H108.18V116.886H112.478V115.752H106.766V124.222L108.082 124.208C110.434 124.194 112.31 124.068 113.654 123.788L113.458 122.654ZM116.244 114.632H114.802V127.106H116.244V114.632ZM130.555 115.976H121.959V117.11H129.099L129.071 118.902L121.567 119.266L121.749 120.4L129.001 120.008C128.931 121.002 128.805 121.926 128.609 122.78L129.995 122.92C130.485 120.638 130.555 118.202 130.555 115.976ZM131.899 125.454V124.306H126.243V121.422H124.801V124.306H120.629V125.454H131.899ZM142.334 127.106V114.632H140.892V127.106H142.334ZM139.618 122.43C138.134 122.766 136.16 122.808 134.326 122.808V116.956H138.568V115.794H132.912V124.04H134.312C136.65 124.026 138.484 123.914 139.814 123.62L139.618 122.43ZM156.421 114.632H154.979V127.106H156.421V120.708H158.297V119.504H156.421V114.632ZM154.195 122.976C152.361 121.828 151.087 119.84 151.087 117.446V115.71H149.617V117.53C149.617 119.91 148.385 121.968 146.439 123.228L147.321 124.278C148.693 123.452 149.939 121.884 150.373 120.4C150.821 121.772 152.277 123.368 153.341 124.054L154.195 122.976ZM158.806 116.69H161.424V117.026C161.424 118.846 160.08 120.442 158.33 121.086L159.184 122.206C160.43 121.744 161.788 120.442 162.152 119.238C162.698 120.386 163.916 121.464 164.952 121.87L165.736 120.722C164.28 120.246 162.894 118.804 162.894 116.942V116.69H165.386V115.542H158.806V116.69ZM168.788 126.756V125.608H161.732V122.822H160.304V126.756H168.788ZM168.508 123.676V114.632H167.08V123.676H168.508ZM184.107 120.4H172.837V121.548H184.107V120.4ZM182.763 119.238V118.09H175.763V116.13H182.665V114.968H174.321V119.238H182.763ZM182.805 124.824C182.805 123.438 181.223 122.542 178.465 122.542C175.721 122.542 174.153 123.452 174.153 124.824C174.153 126.224 175.721 127.106 178.479 127.106C181.223 127.106 182.805 126.224 182.805 124.824ZM181.321 124.838C181.321 125.552 180.229 125.944 178.465 125.944C176.715 125.944 175.623 125.552 175.623 124.838C175.623 124.124 176.715 123.69 178.465 123.69C180.229 123.69 181.321 124.124 181.321 124.838ZM194.416 120.232V119.112H187.276V118.132H194.108V115.052H185.792V116.158H192.666V117.096H185.834V120.232H189.25V121.226H184.35V122.374H195.62V121.226H190.678V120.232H194.416ZM185.666 123.228V124.376H192.722V127.148H194.15V123.228H185.666Z" fill="#838390"/>
<path d="M79.69 205.51V204.362H74.748V202.248C77.086 202.024 78.584 200.708 78.584 198.832C78.584 196.774 76.792 195.402 74.048 195.402C71.346 195.402 69.54 196.774 69.54 198.832C69.54 200.694 71.01 202.01 73.32 202.234V204.362H68.42V205.51H79.69ZM77.142 198.846C77.142 200.162 75.91 201.058 74.048 201.058C72.214 201.058 70.982 200.162 70.982 198.846C70.982 197.516 72.214 196.578 74.048 196.578C75.924 196.578 77.142 197.516 77.142 198.846ZM89.8173 198.622V197.474H82.9013V194.8H81.4593V198.622H89.8173ZM91.2033 200.764V199.602H79.9333V200.764H91.2033ZM90.1673 207.022V205.874H82.8453V204.908H89.7053V201.772H81.3473V202.92H88.2633V203.858H81.4033V207.022H90.1673ZM98.6426 198.594C98.6426 196.844 97.2286 195.612 95.3806 195.612C93.5746 195.612 92.1886 196.872 92.1886 198.594C92.1886 200.288 93.5606 201.436 95.3806 201.436C97.2146 201.436 98.6426 200.316 98.6426 198.594ZM97.2006 198.58C97.2006 199.574 96.3606 200.218 95.3806 200.218C94.4286 200.218 93.5886 199.574 93.5886 198.58C93.5886 197.544 94.4146 196.844 95.3806 196.844C96.3886 196.844 97.2006 197.502 97.2006 198.58ZM101.877 194.632H100.449V207.106H101.877V194.632ZM99.7486 202.766C98.6706 202.878 97.2706 202.976 95.4926 203.046C94.0366 203.13 92.6786 203.13 91.3486 203.116L91.5726 204.348C94.4986 204.334 97.1866 204.208 99.8606 203.914L99.7486 202.766ZM117.546 198.272V197.082H115.712V194.632H114.284V200.82H115.712V198.272H117.546ZM116.132 207.008V205.874H109.132V204.768H115.712V201.478H107.62V202.626H114.284V203.676H107.704V207.008H116.132ZM113.024 198.664C111.554 199 109.776 199.168 107.928 199.168V195.276H106.514V200.386H107.844C109.482 200.358 111.722 200.232 113.248 199.868L113.024 198.664ZM128.009 207.106V194.632H126.623V207.106H128.009ZM125.951 203.102C124.635 202.01 124.075 200.386 124.075 197.922V195.682H122.717V197.992C122.717 200.372 122.045 202.626 120.407 203.844L121.331 204.754C122.171 204.11 123.165 202.626 123.403 201.632C123.669 202.416 124.383 203.466 125.041 204.054L125.951 203.102ZM121.779 201.478C121.079 200.876 120.603 200.106 120.603 197.404V195.836H119.231V197.46C119.231 200.316 118.531 202.136 117.229 203.06L118.153 203.928C118.979 203.284 119.693 202.164 119.959 201.24C120.155 201.702 120.603 202.276 120.995 202.556L121.779 201.478ZM136.694 203.13C135.84 203.242 134.748 203.326 133.446 203.41V201.268C134.902 201.03 135.98 199.98 135.98 198.468C135.98 196.732 134.538 195.514 132.704 195.514C130.884 195.514 129.47 196.76 129.47 198.468C129.47 200.008 130.52 201.044 132.018 201.282V203.452C130.898 203.494 129.806 203.494 128.77 203.494L128.966 204.698C131.57 204.684 134.272 204.586 136.806 204.236L136.694 203.13ZM138.85 194.632H137.422V207.106H138.85V200.904H140.684V199.714H138.85V194.632ZM134.524 198.468C134.524 199.518 133.684 200.148 132.704 200.148C131.738 200.148 130.884 199.518 130.884 198.454C130.884 197.404 131.696 196.718 132.704 196.718C133.712 196.718 134.524 197.362 134.524 198.468ZM153.581 195.976H144.985V197.11H152.125L152.097 198.902L144.593 199.266L144.775 200.4L152.027 200.008C151.957 201.002 151.831 201.926 151.635 202.78L153.021 202.92C153.511 200.638 153.581 198.202 153.581 195.976ZM154.925 205.454V204.306H149.269V201.422H147.827V204.306H143.655V205.454H154.925ZM165.36 207.106V194.632H163.918V207.106H165.36ZM162.644 202.43C161.16 202.766 159.186 202.808 157.352 202.808V196.956H161.594V195.794H155.938V204.04H157.338C159.676 204.026 161.51 203.914 162.84 203.62L162.644 202.43ZM179.923 197.796V196.662H170.865V197.796H174.603C174.183 199.112 172.251 199.938 170.305 200.162L170.949 201.31C172.839 201.072 174.757 200.106 175.401 198.888C176.129 200.078 178.131 201.072 179.839 201.268L180.469 200.12C178.593 199.938 176.647 199.098 176.213 197.796H179.923ZM176.087 207.106V203.228H181.029V202.094H169.759V203.228H174.659V207.106H176.087ZM173.357 195.85H177.417V194.702H173.357V195.85ZM181.693 198.16H184.255C184.185 199.882 182.911 201.156 181.189 201.716L182.001 202.822C183.289 202.402 184.577 201.198 184.997 200.064C185.529 201.156 186.859 202.136 187.839 202.472L188.581 201.352C187.153 200.96 185.781 199.896 185.725 198.16H188.273V197.026H181.693V198.16ZM191.549 194.632H190.107V198.958H188.091V200.162H190.107V203.69H191.549V194.632ZM191.815 206.742V205.594H184.857V202.92H183.401V206.742H191.815ZM183.205 196.186H186.747V195.038H183.205V196.186ZM202.36 197.936C202.36 196.242 200.974 195.08 199.154 195.08C197.348 195.08 195.99 196.27 195.99 197.936C195.99 199.63 197.418 200.68 199.154 200.68C200.974 200.68 202.36 199.588 202.36 197.936ZM200.932 197.922C200.932 198.776 200.232 199.49 199.154 199.49C198.146 199.49 197.39 198.832 197.39 197.922C197.39 196.998 198.188 196.27 199.154 196.27C200.246 196.27 200.932 196.984 200.932 197.922ZM205.958 206.966V205.804H198.958V204.81H205.552V201.646H197.502V202.794H204.11V203.746H197.53V206.966H205.958ZM207.372 198.426V197.25H205.552V194.632H204.11V200.904H205.552V198.426H207.372ZM217.639 201.954V194.632H216.211V201.954H217.639ZM217.639 206.938V202.598H209.253V206.938H217.639ZM216.211 205.804H210.681V203.718H216.211V205.804ZM214.685 199.952C213.579 200.218 210.975 200.33 209.449 200.33V198.86H213.593V195.332H207.951V196.48H212.151V197.754H208.007V201.492H209.575C211.395 201.478 213.635 201.338 214.867 201.072L214.685 199.952ZM78.92 227.106V214.632H77.548V219.588H76.218V214.884H74.874V226.504H76.218V220.792H77.548V227.106H78.92ZM74.076 222.22C73.264 222.458 71.682 222.584 70.436 222.584V216.116H69.008V223.774H70.24C71.738 223.76 73.432 223.592 74.272 223.382L74.076 222.22ZM85.881 217.292L84.453 217.432L84.789 220.484C84.187 220.498 83.585 220.512 83.067 220.512L83.263 221.716C84.411 221.702 85.727 221.688 86.945 221.618C88.415 221.548 89.969 221.422 90.879 221.254L90.753 220.162C90.221 220.232 89.619 220.288 88.961 220.33L89.255 217.404L87.869 217.278L87.701 220.4C87.155 220.428 86.623 220.442 86.063 220.456L85.881 217.292ZM93.945 226.112C92.041 225.804 89.927 224.474 89.927 222.696V222.332H88.429V222.696C88.429 224.474 86.371 225.874 84.355 226.098L85.041 227.232C86.847 226.952 88.667 225.678 89.143 224.53C89.717 225.65 91.551 226.924 93.245 227.246L93.945 226.112ZM93.273 222.92V214.632H91.845V222.92H93.273ZM90.361 216.704V215.556H83.459V216.704H90.361ZM104.688 221.87V220.708H102.798L103.316 217.712L101.916 217.516L101.454 220.708H98.8503L98.5983 217.502L97.1703 217.642L97.5063 220.708H95.5743V221.87H104.688ZM105.794 225.44V224.306H94.5243V225.44H105.794ZM104.702 216.802V215.654H95.5603V216.802H104.702ZM113.458 222.654C112.002 222.962 110.042 223.032 108.18 223.032V220.442H112.212V219.308H108.18V216.886H112.478V215.752H106.766V224.222L108.082 224.208C110.434 224.194 112.31 224.068 113.654 223.788L113.458 222.654ZM116.244 214.632H114.802V227.106H116.244V214.632ZM131.535 220.722C129.701 220.414 127.111 218.846 127.027 216.774H130.891V215.626H121.637V216.774H125.515C125.445 218.86 122.981 220.4 121.007 220.68L121.707 221.856C123.555 221.422 125.669 220.148 126.271 218.566C126.943 220.106 128.973 221.394 130.793 221.856L131.535 220.722ZM131.899 225.524V224.376H126.957V221.506H125.529V224.376H120.629V225.524H131.899ZM140.43 223.634C139.506 223.76 138.19 223.844 136.916 223.9V222.808C138.33 222.612 139.282 221.814 139.282 220.75C139.282 219.504 138.022 218.636 136.23 218.636C134.466 218.636 133.206 219.504 133.206 220.75C133.206 221.786 134.116 222.584 135.488 222.794V223.956C134.34 223.984 133.192 223.984 132.128 223.984L132.352 225.174C135.18 225.146 137.938 225.062 140.542 224.754L140.43 223.634ZM142.572 214.632H141.13V227.106H142.572V214.632ZM139.884 218.188V217.068H132.562V218.188H139.884ZM137.812 220.75C137.812 221.324 137.154 221.73 136.23 221.73C135.348 221.73 134.676 221.324 134.676 220.75C134.676 220.162 135.348 219.756 136.23 219.756C137.154 219.756 137.812 220.162 137.812 220.75ZM134.41 216.396H138.036V215.248H134.41V216.396ZM149.983 227.12V222.584H154.925V221.45H143.655V222.584H148.555V227.12H149.983ZM154.449 219.056C152.433 218.86 150.067 217.334 150.067 215.542V214.912H148.555V215.542C148.555 217.334 146.413 218.804 144.201 219.056L144.831 220.232C146.721 219.896 148.751 218.692 149.297 217.306C149.927 218.692 151.943 219.91 153.791 220.218L154.449 219.056ZM164.742 217.936C164.742 216.242 163.356 215.08 161.536 215.08C159.73 215.08 158.372 216.27 158.372 217.936C158.372 219.63 159.8 220.68 161.536 220.68C163.356 220.68 164.742 219.588 164.742 217.936ZM163.314 217.922C163.314 218.776 162.614 219.49 161.536 219.49C160.528 219.49 159.772 218.832 159.772 217.922C159.772 216.998 160.57 216.27 161.536 216.27C162.628 216.27 163.314 216.984 163.314 217.922ZM168.34 226.966V225.804H161.34V224.81H167.934V221.646H159.884V222.794H166.492V223.746H159.912V226.966H168.34ZM169.754 218.426V217.25H167.934V214.632H166.492V220.904H167.934V218.426H169.754ZM180.021 221.954V214.632H178.593V221.954H180.021ZM180.021 226.938V222.598H171.635V226.938H180.021ZM178.593 225.804H173.063V223.718H178.593V225.804ZM177.067 219.952C175.961 220.218 173.357 220.33 171.831 220.33V218.86H175.975V215.332H170.333V216.48H174.533V217.754H170.389V221.492H171.957C173.777 221.478 176.017 221.338 177.249 221.072L177.067 219.952ZM78.92 247.106V234.632H77.548V239.588H76.218V234.884H74.874V246.504H76.218V240.792H77.548V247.106H78.92ZM74.076 242.22C73.264 242.458 71.682 242.584 70.436 242.584V236.116H69.008V243.774H70.24C71.738 243.76 73.432 243.592 74.272 243.382L74.076 242.22ZM85.881 237.292L84.453 237.432L84.789 240.484C84.187 240.498 83.585 240.512 83.067 240.512L83.263 241.716C84.411 241.702 85.727 241.688 86.945 241.618C88.415 241.548 89.969 241.422 90.879 241.254L90.753 240.162C90.221 240.232 89.619 240.288 88.961 240.33L89.255 237.404L87.869 237.278L87.701 240.4C87.155 240.428 86.623 240.442 86.063 240.456L85.881 237.292ZM93.945 246.112C92.041 245.804 89.927 244.474 89.927 242.696V242.332H88.429V242.696C88.429 244.474 86.371 245.874 84.355 246.098L85.041 247.232C86.847 246.952 88.667 245.678 89.143 244.53C89.717 245.65 91.551 246.924 93.245 247.246L93.945 246.112ZM93.273 242.92V234.632H91.845V242.92H93.273ZM90.361 236.704V235.556H83.459V236.704H90.361ZM104.688 241.87V240.708H102.798L103.316 237.712L101.916 237.516L101.454 240.708H98.8503L98.5983 237.502L97.1703 237.642L97.5063 240.708H95.5743V241.87H104.688ZM105.794 245.44V244.306H94.5243V245.44H105.794ZM104.702 236.802V235.654H95.5603V236.802H104.702ZM113.458 242.654C112.002 242.962 110.042 243.032 108.18 243.032V240.442H112.212V239.308H108.18V236.886H112.478V235.752H106.766V244.222L108.082 244.208C110.434 244.194 112.31 244.068 113.654 243.788L113.458 242.654ZM116.244 234.632H114.802V247.106H116.244V234.632ZM130.877 247.022V245.874H123.471V245.048H130.401V242.052H122.043V243.186H128.973V244.026H122.043V247.022H130.877ZM131.283 238.258C129.589 238.174 127.643 237.516 127.139 236.214H130.751V235.094H121.777V236.214H125.417C124.969 237.516 123.191 238.174 121.273 238.286L121.889 239.392C123.877 239.168 125.613 238.356 126.271 237.152C126.985 238.328 128.707 239.168 130.639 239.392L131.283 238.258ZM131.899 241.212V240.05H120.629V241.212H131.899ZM142.418 247.106V234.632H140.99V238.048H138.512V239.224H140.99V241.324H138.316V242.486H140.99V247.106H142.418ZM138.428 235.948H132.688V237.124H136.888C136.65 239.742 134.83 242.402 131.988 243.718L132.884 244.81C136.468 242.85 138.344 239.812 138.428 235.948ZM145.307 242.43V243.578H148.667C148.387 245.034 146.609 246 144.663 246.126L145.321 247.19C147.127 246.994 148.947 245.874 149.423 244.768C149.857 245.874 151.901 247.092 153.511 247.218L154.169 246.126C152.405 245.93 150.361 245.02 150.207 243.578H153.553V242.43H145.307ZM143.935 237.936H146.413C146.175 239.406 144.957 240.414 143.403 240.932L144.215 242.038C145.503 241.618 146.777 240.498 147.211 239.378C147.757 240.456 149.045 241.366 150.039 241.688L150.781 240.568C149.493 240.218 148.261 239.364 147.981 237.936H150.473V236.774H143.935V237.936ZM155.177 238.804V237.6H153.343V234.632H151.901V241.828H153.343V238.804H155.177ZM145.433 235.99H148.975V234.828H145.433V235.99ZM165.444 247.106V234.632H164.016V247.106H165.444ZM161.622 235.948H155.84V237.124H160.082C159.844 239.742 157.982 242.36 155.112 243.676L156.008 244.768C159.606 242.794 161.538 239.812 161.622 235.948ZM176.255 237.936C176.255 236.242 174.869 235.08 173.049 235.08C171.243 235.08 169.885 236.27 169.885 237.936C169.885 239.63 171.313 240.68 173.049 240.68C174.869 240.68 176.255 239.588 176.255 237.936ZM174.827 237.922C174.827 238.776 174.127 239.49 173.049 239.49C172.041 239.49 171.285 238.832 171.285 237.922C171.285 236.998 172.083 236.27 173.049 236.27C174.141 236.27 174.827 236.984 174.827 237.922ZM179.853 246.966V245.804H172.853V244.81H179.447V241.646H171.397V242.794H178.005V243.746H171.425V246.966H179.853ZM181.267 238.426V237.25H179.447V234.632H178.005V240.904H179.447V238.426H181.267ZM191.535 241.954V234.632H190.107V241.954H191.535ZM191.535 246.938V242.598H183.149V246.938H191.535ZM190.107 245.804H184.577V243.718H190.107V245.804ZM188.581 239.952C187.475 240.218 184.871 240.33 183.345 240.33V238.86H187.489V235.332H181.847V236.48H186.047V237.754H181.903V241.492H183.471C185.291 241.478 187.531 241.338 188.763 241.072L188.581 239.952Z" fill="#838390"/>
<circle cx="28" cy="28" r="28" fill="#F2F2F7"/>
<path d="M37 26C37 33 28 39 28 39C28 39 19 33 19 26C19 23.6131 19.9482 21.3239 21.636 19.636C23.3239 17.9482 25.6131 17 28 17C30.3869 17 32.6761 17.9482 34.364 19.636C36.0518 21.3239 37 23.6131 37 26Z" stroke="#1C1C1E" stroke-width="1.5" stroke-linecap="round" stroke-linejoin="round"/>
<path d="M28 29C29.6569 29 31 27.6569 31 26C31 24.3431 29.6569 23 28 23C26.3431 23 25 24.3431 25 26C25 27.6569 26.3431 29 28 29Z" stroke="#1C1C1E" stroke-width="1.5" stroke-linecap="round" stroke-linejoin="round"/>
<circle cx="28" cy="108" r="28" fill="#F2F2F7"/>
<path d="M33 98H23C20.2386 98 18 100.239 18 103V113C18 115.761 20.2386 118 23 118H33C35.7614 118 38 115.761 38 113V103C38 100.239 35.7614 98 33 98Z" stroke="#1C1C1E" stroke-width="1.5" stroke-linecap="round" stroke-linejoin="round"/>
<path d="M32 107.37C32.1234 108.202 31.9812 109.052 31.5937 109.799C31.2062 110.546 30.5931 111.151 29.8416 111.53C29.0901 111.908 28.2384 112.04 27.4077 111.906C26.5771 111.772 25.8097 111.38 25.2148 110.785C24.6199 110.19 24.2277 109.423 24.094 108.592C23.9604 107.762 24.092 106.91 24.4703 106.158C24.8485 105.407 25.4541 104.794 26.2009 104.406C26.9477 104.019 27.7977 103.877 28.63 104C29.4789 104.126 30.2648 104.521 30.8716 105.128C31.4785 105.735 31.8741 106.521 32 107.37Z" stroke="#1C1C1E" stroke-width="1.5" stroke-linecap="round" stroke-linejoin="round"/>
<path d="M33.5 102.5H33.51" stroke="#1C1C1E" stroke-width="1.5" stroke-linecap="round" stroke-linejoin="round"/>
<circle cx="28" cy="188" r="28" fill="#F2F2F7"/>
<path d="M34 184C34 182.409 33.3679 180.883 32.2426 179.757C31.1174 178.632 29.5913 178 28 178C26.4087 178 24.8826 178.632 23.7574 179.757C22.6321 180.883 22 182.409 22 184C22 191 19 193 19 193H37C37 193 34 191 34 184Z" stroke="black" stroke-width="1.5" stroke-linecap="round" stroke-linejoin="round"/>
<path d="M29.73 197C29.5542 197.303 29.3019 197.555 28.9982 197.73C28.6946 197.904 28.3504 197.996 28 197.996C27.6496 197.996 27.3054 197.904 27.0018 197.73C26.6982 197.555 26.4458 197.303 26.27 197" stroke="black" stroke-width="1.5" stroke-linecap="round" stroke-linejoin="round"/>
</svg>
