<svg width="40" height="40" viewBox="0 0 40 40" fill="none" xmlns="http://www.w3.org/2000/svg">
<mask id="path-1-outside-1_1361_4036" maskUnits="userSpaceOnUse" x="7" y="6" width="26" height="28" fill="black">
<rect fill="white" x="7" y="6" width="26" height="28"/>
<path d="M30.6755 14.0006C30.0076 12.8741 28.5298 12.4894 27.3738 13.1384L22.417 15.925V10.3531C22.417 9.05388 21.3344 8 19.9997 8C18.6651 8 17.5825 9.05388 17.5825 10.3531V15.925L12.6256 13.1384C11.4696 12.4882 9.99187 12.8741 9.32395 14.0006C8.65725 15.1259 9.05238 16.5645 10.2084 17.2146L15.1652 20L10.2084 22.7854C9.05238 23.4355 8.65725 24.8741 9.32395 25.9994C9.77168 26.7544 10.584 27.1771 11.4195 27.1771C11.8293 27.1771 12.2452 27.0747 12.6256 26.8616L17.5825 24.075V29.6469C17.5825 30.9461 18.6651 32 19.9997 32C21.3344 32 22.417 30.9461 22.417 29.6469V24.075L27.3738 26.8616C27.7543 27.0747 28.1702 27.1771 28.58 27.1771C29.4155 27.1771 30.2278 26.7544 30.6755 25.9994C31.3434 24.8741 30.9471 23.4355 29.7911 22.7854L24.8342 20L29.7911 17.2146C30.9471 16.5645 31.3434 15.1259 30.6755 14.0006V14.0006Z"/>
</mask>
<path d="M30.6755 14.0006C30.0076 12.8741 28.5298 12.4894 27.3738 13.1384L22.417 15.925V10.3531C22.417 9.05388 21.3344 8 19.9997 8C18.6651 8 17.5825 9.05388 17.5825 10.3531V15.925L12.6256 13.1384C11.4696 12.4882 9.99187 12.8741 9.32395 14.0006C8.65725 15.1259 9.05238 16.5645 10.2084 17.2146L15.1652 20L10.2084 22.7854C9.05238 23.4355 8.65725 24.8741 9.32395 25.9994C9.77168 26.7544 10.584 27.1771 11.4195 27.1771C11.8293 27.1771 12.2452 27.0747 12.6256 26.8616L17.5825 24.075V29.6469C17.5825 30.9461 18.6651 32 19.9997 32C21.3344 32 22.417 30.9461 22.417 29.6469V24.075L27.3738 26.8616C27.7543 27.0747 28.1702 27.1771 28.58 27.1771C29.4155 27.1771 30.2278 26.7544 30.6755 25.9994C31.3434 24.8741 30.9471 23.4355 29.7911 22.7854L24.8342 20L29.7911 17.2146C30.9471 16.5645 31.3434 15.1259 30.6755 14.0006V14.0006Z" fill="white"/>
<path d="M30.6755 14.0006C30.0076 12.8741 28.5298 12.4894 27.3738 13.1384L22.417 15.925V10.3531C22.417 9.05388 21.3344 8 19.9997 8C18.6651 8 17.5825 9.05388 17.5825 10.3531V15.925L12.6256 13.1384C11.4696 12.4882 9.99187 12.8741 9.32395 14.0006C8.65725 15.1259 9.05238 16.5645 10.2084 17.2146L15.1652 20L10.2084 22.7854C9.05238 23.4355 8.65725 24.8741 9.32395 25.9994C9.77168 26.7544 10.584 27.1771 11.4195 27.1771C11.8293 27.1771 12.2452 27.0747 12.6256 26.8616L17.5825 24.075V29.6469C17.5825 30.9461 18.6651 32 19.9997 32C21.3344 32 22.417 30.9461 22.417 29.6469V24.075L27.3738 26.8616C27.7543 27.0747 28.1702 27.1771 28.58 27.1771C29.4155 27.1771 30.2278 26.7544 30.6755 25.9994C31.3434 24.8741 30.9471 23.4355 29.7911 22.7854L24.8342 20L29.7911 17.2146C30.9471 16.5645 31.3434 15.1259 30.6755 14.0006V14.0006Z" stroke="black" stroke-width="3" mask="url(#path-1-outside-1_1361_4036)"/>
</svg>
