<svg width="40" height="40" viewBox="0 0 40 40" fill="none" xmlns="http://www.w3.org/2000/svg">
<path d="M27.0063 12.4847L27.0067 12.4844C28.5094 11.6408 30.4399 12.1329 31.3205 13.6178C32.2086 15.1141 31.6727 17.0168 30.1587 17.8683L30.1585 17.8685L26.3652 20L30.1585 22.1315L30.1587 22.1317C31.6726 22.9831 32.2085 24.8857 31.3206 26.382L27.0063 12.4847ZM27.0063 12.4847L23.167 14.643M27.0063 12.4847L23.167 14.643M23.167 14.643V10.3531C23.167 8.62078 21.7294 7.25 19.9997 7.25C18.27 7.25 16.8325 8.62078 16.8325 10.3531V14.643L12.9933 12.4847C12.9933 12.4847 12.9932 12.4847 12.9932 12.4847C11.4896 11.6391 9.55898 12.1336 8.67882 13.6181L8.67869 13.6183C7.79271 15.1138 8.32616 17.0165 9.84073 17.8683L9.84099 17.8685L13.6342 20L9.84099 22.1315L9.84073 22.1317C8.32616 22.9835 7.79271 24.8862 8.67869 26.3817L8.67886 26.382C9.27013 27.379 10.3362 27.9271 11.4195 27.9271C11.9544 27.9271 12.497 27.7934 12.9922 27.5159L12.9932 27.5153L16.8325 25.357V29.6469C16.8325 31.3792 18.27 32.75 19.9997 32.75C21.7294 32.75 23.167 31.3792 23.167 29.6469V25.357L27.0063 27.5153L27.0072 27.5159C27.5025 27.7934 28.0451 27.9271 28.58 27.9271C29.6632 27.9271 30.7292 27.3791 31.3205 26.3822L23.167 14.643Z" fill="white" stroke="black" stroke-width="1.5"/>
</svg>
