<svg width="24" height="21" viewBox="0 0 24 21" fill="none" xmlns="http://www.w3.org/2000/svg">
<path d="M9.39298 2.32505L8.73593 2.68668L9.39298 2.32505C9.06082 1.72153 8.44608 1.33412 7.83877 1.19945C7.23041 1.06454 6.45945 1.15492 5.93653 1.75772L1.84733 6.47155C0.819762 7.65608 1.28863 9.50208 2.7569 10.0527L3.76334 10.4301C4.05607 10.5399 4.25 10.8197 4.25 11.1323V17.5928C4.25 18.8355 5.25736 19.8428 6.5 19.8428H17.5C18.7426 19.8428 19.75 18.8355 19.75 17.5928V11.1323C19.75 10.8197 19.9439 10.5399 20.2367 10.4301L21.2431 10.0527C22.7114 9.50208 23.1802 7.65608 22.1527 6.47155L18.0635 1.75772C17.5405 1.15492 16.7696 1.06454 16.1612 1.19945C15.5539 1.33412 14.9392 1.72153 14.607 2.32505C13.9326 3.55047 12.9388 4.34284 12 4.34284C11.0612 4.34284 10.0674 3.55047 9.39298 2.32505Z" fill="#FF800A" stroke="black" stroke-width="1.5"/>
</svg>
