<svg width="56" height="56" viewBox="0 0 56 56" fill="none" xmlns="http://www.w3.org/2000/svg">
<circle cx="28" cy="28" r="28" fill="black"/>
<g clip-path="url(#clip0_475_2949)">
<path d="M36.4273 23.5383C36.299 23.6378 34.0346 24.9138 34.0346 27.7509C34.0346 31.0324 36.916 32.1934 37.0022 32.2221C36.9889 32.2929 36.5445 33.812 35.483 35.36C34.5366 36.7221 33.5482 38.0821 32.0445 38.0821C30.5408 38.0821 30.1538 37.2086 28.4179 37.2086C26.7263 37.2086 26.1248 38.1108 24.7494 38.1108C23.374 38.1108 22.4143 36.8504 21.3108 35.3025C20.0327 33.4848 19 30.6609 19 27.9808C19 23.6821 21.7951 21.4022 24.5459 21.4022C26.0076 21.4022 27.226 22.3619 28.1437 22.3619C29.0172 22.3619 30.3794 21.3447 32.0423 21.3447C32.6725 21.3447 34.9369 21.4022 36.4273 23.5383ZM31.2528 19.5248C31.9405 18.7088 32.427 17.5767 32.427 16.4445C32.427 16.2875 32.4138 16.1283 32.385 16C31.2661 16.042 29.9349 16.7452 29.1322 17.6762C28.502 18.3926 27.9138 19.5248 27.9138 20.6725C27.9138 20.845 27.9425 21.0174 27.9558 21.0727C28.0265 21.086 28.1415 21.1015 28.2565 21.1015C29.2604 21.1015 30.5231 20.4292 31.2528 19.5248Z" fill="white"/>
</g>
<defs>
<clipPath id="clip0_475_2949">
<rect width="18" height="22.113" fill="white" transform="translate(19 16)"/>
</clipPath>
</defs>
</svg>
