<svg width="375" height="47" viewBox="0 0 375 47" fill="none" xmlns="http://www.w3.org/2000/svg">
<path d="M14.825 13.9242C14.825 18.9909 10.7176 23.0983 5.65084 23.0983C0.584093 23.0983 -3.52332 18.9909 -3.52332 13.9242C-3.52332 8.85741 0.584093 4.75 5.65084 4.75C10.7176 4.75 14.825 8.85741 14.825 13.9242Z" fill="#FF800A" stroke="black" stroke-width="1.5"/>
<path d="M-16.9453 16.8853L-16.4113 16.9626L-16.1683 16.4809C-14.0914 12.3641 -9.8208 9.54097 -4.8884 9.54097C1.08028 9.54097 6.08095 13.6772 7.3943 19.2331C7.52277 19.7769 7.61617 20.3334 7.67095 20.8997V21.5987L8.40386 21.6154C11.9643 21.6965 14.825 24.6024 14.825 28.1725C14.825 31.7946 11.8829 34.7335 8.24916 34.7335H-18.2595C-23.2258 34.7335 -27.25 30.716 -27.25 25.7612C-27.25 20.8078 -23.2257 16.7888 -18.2595 16.7888C-17.8154 16.7888 -17.3772 16.8228 -16.9453 16.8853Z" fill="white" stroke="black" stroke-width="1.5"/>
<path d="M49.0547 16.8853L49.5887 16.9626L49.8317 16.4809C51.9086 12.3641 56.1792 9.54097 61.1116 9.54097C67.0803 9.54097 72.081 13.6772 73.3943 19.2331C73.5228 19.7769 73.6162 20.3334 73.6709 20.8997V21.5987L74.4039 21.6154C77.9643 21.6965 80.825 24.6024 80.825 28.1725C80.825 31.7946 77.8829 34.7335 74.2492 34.7335H47.7405C42.7742 34.7335 38.75 30.716 38.75 25.7612C38.75 20.8078 42.7743 16.7888 47.7405 16.7888C48.1846 16.7888 48.6228 16.8228 49.0547 16.8853Z" fill="white" stroke="black" stroke-width="1.5"/>
<path d="M146 20.6448C146 24.3207 143.015 27.3006 139.331 27.3006H115.197C110.3 27.3006 106.33 23.3387 106.33 18.4495C106.33 13.5617 110.3 9.59838 115.197 9.59838C115.637 9.59838 116.068 9.63203 116.492 9.69326C118.494 5.72385 122.613 3 127.37 3C133.127 3 137.95 6.9895 139.217 12.3493C139.343 12.8845 139.435 13.4327 139.487 13.9912V13.9926C143.097 14.0749 146 17.0212 146 20.6448Z" fill="#BAC7CB" fill-opacity="0.4"/>
<g filter="url(#filter0_b_475_4890)">
<path d="M146 20.6448C146 24.3207 143.015 27.3006 139.331 27.3006H115.197C110.3 27.3006 106.33 23.3387 106.33 18.4495C106.33 13.5617 110.3 9.59838 115.197 9.59838C115.637 9.59838 116.068 9.63203 116.492 9.69326C118.494 5.72385 122.613 3 127.37 3C133.127 3 137.95 6.9895 139.217 12.3493C139.343 12.8845 139.435 13.4327 139.487 13.9912V13.9926C143.097 14.0749 146 17.0212 146 20.6448Z" fill="url(#paint0_linear_475_4890)"/>
</g>
<g filter="url(#filter1_b_475_4890)">
<path fill-rule="evenodd" clip-rule="evenodd" d="M116.61 9.92021L116.462 9.89882C116.048 9.83891 115.626 9.80608 115.197 9.80608C110.415 9.80608 106.537 13.6768 106.537 18.4495C106.537 23.2236 110.415 27.0929 115.197 27.0929H139.331C142.9 27.0929 145.792 24.2056 145.792 20.6448C145.792 17.1348 142.98 14.28 139.482 14.2003L139.279 14.1957V14.001C139.228 13.4556 139.138 12.9201 139.015 12.3971C137.769 7.12909 133.029 3.2077 127.37 3.2077C122.694 3.2077 118.646 5.88479 116.677 9.78681L116.61 9.92021ZM139.487 13.9912V13.9926C143.097 14.0749 146 17.0212 146 20.6448C146 24.3207 143.015 27.3006 139.331 27.3006H115.197C110.3 27.3006 106.33 23.3387 106.33 18.4495C106.33 13.5617 110.3 9.59838 115.197 9.59838C115.637 9.59838 116.068 9.63203 116.492 9.69326C118.494 5.72385 122.613 3 127.37 3C133.127 3 137.95 6.9895 139.217 12.3493C139.343 12.8845 139.435 13.4327 139.487 13.9912Z" fill="url(#paint1_linear_475_4890)"/>
</g>
<path d="M139.947 12.1769L139.947 12.1768C138.601 6.48544 133.482 2.25 127.37 2.25C122.508 2.25 118.275 4.93041 116.07 8.88849C115.783 8.86231 115.492 8.84838 115.197 8.84838C109.887 8.84838 105.58 13.1462 105.58 18.4495C105.58 23.7543 109.887 28.0506 115.197 28.0506H139.331C143.427 28.0506 146.75 24.7363 146.75 20.6448C146.75 16.8326 143.864 13.6964 140.158 13.2863C140.104 12.9111 140.033 12.5411 139.947 12.1769Z" fill="white" stroke="black" stroke-width="1.5"/>
<path d="M131.233 20.3961L131.233 20.396C130.223 16.1248 126.382 12.9464 121.795 12.9464C118.193 12.9464 115.05 14.9077 113.379 17.8162C113.204 17.8033 113.027 17.7965 112.848 17.7965C108.835 17.7965 105.58 21.0442 105.58 25.0525C105.58 29.0618 108.835 32.3084 112.848 32.3084H130.587C133.707 32.3084 136.239 29.7836 136.239 26.6661C136.239 23.8135 134.119 21.4583 131.369 21.0786C131.331 20.8483 131.286 20.6207 131.233 20.3961Z" fill="white" stroke="black" stroke-width="1.5"/>
<path d="M126.203 34.2585C124.877 35.0261 123.984 36.4589 123.984 38.1011C123.984 38.1598 123.985 38.2181 123.987 38.276C124.096 41.0655 128.31 41.0655 128.418 38.276C128.421 38.2181 128.421 38.1598 128.421 38.1011C128.422 36.4589 127.529 35.0261 126.203 34.2585Z" fill="#00A3FF" stroke="black" stroke-width="1.5"/>
<path d="M116.369 29.1344C114.836 30.0215 113.804 31.6772 113.804 33.5748C113.804 33.6427 113.806 33.71 113.809 33.7774C113.933 37.0004 118.803 37.0004 118.929 33.7774C118.931 33.71 118.932 33.6427 118.932 33.5748C118.932 31.6772 117.901 30.0215 116.369 29.1344Z" fill="#00A3FF" stroke="black" stroke-width="1.5"/>
<path d="M135.893 30.1045C134.567 30.8721 133.674 32.3049 133.674 33.9471C133.674 34.0058 133.675 34.0641 133.677 34.1224C133.786 36.9115 138 36.9115 138.108 34.1224C138.111 34.0641 138.111 34.0058 138.111 33.9471C138.112 32.3049 137.219 30.8721 135.893 30.1045Z" fill="#00A3FF" stroke="black" stroke-width="1.5"/>
<path d="M181.055 16.8853L181.589 16.9626L181.832 16.4809C183.909 12.3641 188.179 9.54097 193.112 9.54097C199.08 9.54097 204.081 13.6772 205.394 19.2331C205.523 19.7769 205.616 20.3334 205.671 20.8997V21.5987L206.404 21.6154C209.964 21.6965 212.825 24.6024 212.825 28.1725C212.825 31.7946 209.883 34.7335 206.249 34.7335H179.741C174.774 34.7335 170.75 30.716 170.75 25.7612C170.75 20.8078 174.774 16.7888 179.741 16.7888C180.185 16.7888 180.623 16.8228 181.055 16.8853Z" fill="white" stroke="black" stroke-width="1.5"/>
<path d="M199.628 25.6329C199.838 25.3258 199.791 24.9115 199.518 24.6592C199.245 24.4068 198.828 24.3926 198.539 24.6257L188.243 32.9128C187.996 33.1123 187.901 33.4464 188.006 33.7464C188.112 34.0464 188.396 34.247 188.714 34.247H189.635L186.146 38.2878C185.954 38.5098 185.91 38.8233 186.032 39.0901C186.154 39.3569 186.42 39.5279 186.714 39.5279H187.974L184.534 44.5436C184.329 44.8423 184.367 45.2447 184.624 45.4999C184.881 45.7552 185.284 45.7903 185.581 45.5834L195.758 38.5022C196.027 38.3151 196.143 37.9749 196.045 37.6621C195.947 37.3494 195.657 37.1366 195.33 37.1366H194.192L197.576 33.3344C197.772 33.1137 197.821 32.7983 197.7 32.5287C197.579 32.2592 197.311 32.0857 197.015 32.0857H195.222L199.628 25.6329Z" fill="#FF800A" stroke="black" stroke-width="1.5" stroke-linejoin="round"/>
<path d="M278.825 13.9242C278.825 18.9909 274.718 23.0983 269.651 23.0983C264.584 23.0983 260.477 18.9909 260.477 13.9242C260.477 8.85741 264.584 4.75 269.651 4.75C274.718 4.75 278.825 8.85741 278.825 13.9242Z" fill="#FF800A" stroke="black" stroke-width="1.5"/>
<path d="M247.055 16.8853L247.589 16.9626L247.832 16.4809C249.909 12.3641 254.179 9.54097 259.112 9.54097C265.08 9.54097 270.081 13.6772 271.394 19.2331C271.523 19.7769 271.616 20.3334 271.671 20.8997V21.5987L272.404 21.6154C275.964 21.6965 278.825 24.6024 278.825 28.1725C278.825 31.7946 275.883 34.7335 272.249 34.7335H245.741C240.774 34.7335 236.75 30.716 236.75 25.7612C236.75 20.8078 240.774 16.7888 245.741 16.7888C246.185 16.7888 246.623 16.8228 247.055 16.8853Z" fill="white" stroke="black" stroke-width="1.5"/>
<path d="M344 20.6448C344 24.3207 341.015 27.3006 337.331 27.3006H313.197C308.3 27.3006 304.33 23.3387 304.33 18.4495C304.33 13.5617 308.3 9.59838 313.197 9.59838C313.637 9.59838 314.068 9.63203 314.492 9.69326C316.494 5.72385 320.613 3 325.37 3C331.127 3 335.95 6.9895 337.217 12.3493C337.343 12.8845 337.435 13.4327 337.487 13.9912V13.9926C341.097 14.0749 344 17.0212 344 20.6448Z" fill="#BAC7CB" fill-opacity="0.4"/>
<g filter="url(#filter2_b_475_4890)">
<path d="M344 20.6448C344 24.3207 341.015 27.3006 337.331 27.3006H313.197C308.3 27.3006 304.33 23.3387 304.33 18.4495C304.33 13.5617 308.3 9.59838 313.197 9.59838C313.637 9.59838 314.068 9.63203 314.492 9.69326C316.494 5.72385 320.613 3 325.37 3C331.127 3 335.95 6.9895 337.217 12.3493C337.343 12.8845 337.435 13.4327 337.487 13.9912V13.9926C341.097 14.0749 344 17.0212 344 20.6448Z" fill="url(#paint2_linear_475_4890)"/>
</g>
<g filter="url(#filter3_b_475_4890)">
<path fill-rule="evenodd" clip-rule="evenodd" d="M314.61 9.92021L314.462 9.89882C314.048 9.83891 313.626 9.80608 313.197 9.80608C308.415 9.80608 304.537 13.6768 304.537 18.4495C304.537 23.2236 308.415 27.0929 313.197 27.0929H337.331C340.9 27.0929 343.792 24.2056 343.792 20.6448C343.792 17.1348 340.98 14.28 337.482 14.2003L337.279 14.1957V14.001C337.228 13.4556 337.138 12.9201 337.015 12.3971C335.769 7.12909 331.029 3.2077 325.37 3.2077C320.694 3.2077 316.646 5.88479 314.677 9.78681L314.61 9.92021ZM337.487 13.9912V13.9926C341.097 14.0749 344 17.0212 344 20.6448C344 24.3207 341.015 27.3006 337.331 27.3006H313.197C308.3 27.3006 304.33 23.3387 304.33 18.4495C304.33 13.5617 308.3 9.59838 313.197 9.59838C313.637 9.59838 314.068 9.63203 314.492 9.69326C316.494 5.72385 320.613 3 325.37 3C331.127 3 335.95 6.9895 337.217 12.3493C337.343 12.8845 337.435 13.4327 337.487 13.9912Z" fill="url(#paint3_linear_475_4890)"/>
</g>
<path d="M337.947 12.1769L337.947 12.1768C336.601 6.48544 331.482 2.25 325.37 2.25C320.508 2.25 316.275 4.93041 314.07 8.88849C313.783 8.86231 313.492 8.84838 313.197 8.84838C307.887 8.84838 303.58 13.1462 303.58 18.4495C303.58 23.7543 307.887 28.0506 313.197 28.0506H337.331C341.427 28.0506 344.75 24.7363 344.75 20.6448C344.75 16.8326 341.864 13.6964 338.158 13.2863C338.104 12.9111 338.033 12.5411 337.947 12.1769Z" fill="white" stroke="black" stroke-width="1.5"/>
<path d="M329.233 20.3961L329.233 20.396C328.223 16.1248 324.382 12.9464 319.795 12.9464C316.193 12.9464 313.05 14.9077 311.379 17.8162C311.204 17.8033 311.027 17.7965 310.848 17.7965C306.835 17.7965 303.58 21.0442 303.58 25.0525C303.58 29.0618 306.835 32.3084 310.848 32.3084H328.587C331.707 32.3084 334.239 29.7836 334.239 26.6661C334.239 23.8135 332.119 21.4583 329.369 21.0786C329.331 20.8483 329.286 20.6207 329.233 20.3961Z" fill="white" stroke="black" stroke-width="1.5"/>
<path d="M324.203 34.2585C322.877 35.0261 321.984 36.4589 321.984 38.1011C321.984 38.1598 321.985 38.2181 321.987 38.276C322.096 41.0655 326.31 41.0655 326.418 38.276C326.421 38.2181 326.421 38.1598 326.421 38.1011C326.422 36.4589 325.529 35.0261 324.203 34.2585Z" fill="#00A3FF" stroke="black" stroke-width="1.5"/>
<path d="M314.369 29.1344C312.836 30.0215 311.804 31.6772 311.804 33.5748C311.804 33.6427 311.806 33.71 311.809 33.7774C311.933 37.0004 316.803 37.0004 316.929 33.7774C316.931 33.71 316.932 33.6427 316.932 33.5748C316.932 31.6772 315.901 30.0215 314.369 29.1344Z" fill="#00A3FF" stroke="black" stroke-width="1.5"/>
<path d="M333.893 30.1045C332.567 30.8721 331.674 32.3049 331.674 33.9471C331.674 34.0058 331.675 34.0641 331.677 34.1224C331.786 36.9115 336 36.9115 336.108 34.1224C336.111 34.0641 336.111 34.0058 336.111 33.9471C336.112 32.3049 335.219 30.8721 333.893 30.1045Z" fill="#00A3FF" stroke="black" stroke-width="1.5"/>
<path d="M379.055 16.8853L379.589 16.9626L379.832 16.4809C381.909 12.3641 386.179 9.54097 391.112 9.54097C397.08 9.54097 402.081 13.6772 403.394 19.2331C403.523 19.7769 403.616 20.3334 403.671 20.8997V21.5987L404.404 21.6154C407.964 21.6965 410.825 24.6024 410.825 28.1725C410.825 31.7946 407.883 34.7335 404.249 34.7335H377.741C372.774 34.7335 368.75 30.716 368.75 25.7612C368.75 20.8078 372.774 16.7888 377.741 16.7888C378.185 16.7888 378.623 16.8228 379.055 16.8853Z" fill="white" stroke="black" stroke-width="1.5"/>
<defs>
<filter id="filter0_b_475_4890" x="101.137" y="-2.19244" width="50.0552" height="34.6855" filterUnits="userSpaceOnUse" color-interpolation-filters="sRGB">
<feFlood flood-opacity="0" result="BackgroundImageFix"/>
<feGaussianBlur in="BackgroundImageFix" stdDeviation="2.59622"/>
<feComposite in2="SourceAlpha" operator="in" result="effect1_backgroundBlur_475_4890"/>
<feBlend mode="normal" in="SourceGraphic" in2="effect1_backgroundBlur_475_4890" result="shape"/>
</filter>
<filter id="filter1_b_475_4890" x="101.137" y="-2.19244" width="50.0552" height="34.6855" filterUnits="userSpaceOnUse" color-interpolation-filters="sRGB">
<feFlood flood-opacity="0" result="BackgroundImageFix"/>
<feGaussianBlur in="BackgroundImageFix" stdDeviation="2.59622"/>
<feComposite in2="SourceAlpha" operator="in" result="effect1_backgroundBlur_475_4890"/>
<feBlend mode="normal" in="SourceGraphic" in2="effect1_backgroundBlur_475_4890" result="shape"/>
</filter>
<filter id="filter2_b_475_4890" x="299.137" y="-2.19244" width="50.0552" height="34.6855" filterUnits="userSpaceOnUse" color-interpolation-filters="sRGB">
<feFlood flood-opacity="0" result="BackgroundImageFix"/>
<feGaussianBlur in="BackgroundImageFix" stdDeviation="2.59622"/>
<feComposite in2="SourceAlpha" operator="in" result="effect1_backgroundBlur_475_4890"/>
<feBlend mode="normal" in="SourceGraphic" in2="effect1_backgroundBlur_475_4890" result="shape"/>
</filter>
<filter id="filter3_b_475_4890" x="299.137" y="-2.19244" width="50.0552" height="34.6855" filterUnits="userSpaceOnUse" color-interpolation-filters="sRGB">
<feFlood flood-opacity="0" result="BackgroundImageFix"/>
<feGaussianBlur in="BackgroundImageFix" stdDeviation="2.59622"/>
<feComposite in2="SourceAlpha" operator="in" result="effect1_backgroundBlur_475_4890"/>
<feBlend mode="normal" in="SourceGraphic" in2="effect1_backgroundBlur_475_4890" result="shape"/>
</filter>
<linearGradient id="paint0_linear_475_4890" x1="112.613" y1="7.2578" x2="140.756" y2="27.3006" gradientUnits="userSpaceOnUse">
<stop offset="0.416176" stop-color="white" stop-opacity="0.7"/>
<stop offset="1" stop-color="white" stop-opacity="0"/>
</linearGradient>
<linearGradient id="paint1_linear_475_4890" x1="103.292" y1="9.40354" x2="117.496" y2="19.6197" gradientUnits="userSpaceOnUse">
<stop stop-color="white"/>
<stop offset="1" stop-color="white" stop-opacity="0"/>
</linearGradient>
<linearGradient id="paint2_linear_475_4890" x1="310.613" y1="7.2578" x2="338.756" y2="27.3006" gradientUnits="userSpaceOnUse">
<stop offset="0.416176" stop-color="white" stop-opacity="0.7"/>
<stop offset="1" stop-color="white" stop-opacity="0"/>
</linearGradient>
<linearGradient id="paint3_linear_475_4890" x1="301.292" y1="9.40354" x2="315.496" y2="19.6197" gradientUnits="userSpaceOnUse">
<stop stop-color="white"/>
<stop offset="1" stop-color="white" stop-opacity="0"/>
</linearGradient>
</defs>
</svg>
