<svg width="375" height="48" viewBox="0 0 375 48" fill="none" xmlns="http://www.w3.org/2000/svg">
<path d="M19.1 24C19.1 30.1304 14.1304 35.1 8 35.1C1.86964 35.1 -3.1 30.1304 -3.1 24C-3.1 17.8696 1.86964 12.9 8 12.9C14.1304 12.9 19.1 17.8696 19.1 24Z" fill="#FF800A" stroke="black" stroke-width="1.8"/>
<path d="M82.3046 19.2C82.3046 23.3422 78.9467 26.7 74.8046 26.7C70.6625 26.7 67.3046 23.3422 67.3046 19.2C67.3046 15.0579 70.6625 11.7 74.8046 11.7C78.9467 11.7 82.3046 15.0579 82.3046 19.2Z" fill="#FF800A" stroke="black" stroke-width="1.8"/>
<path d="M55.0954 21.7605L55.7289 21.8503L56.0218 21.2815C57.6873 18.0481 61.1188 15.82 65.0939 15.82C69.9058 15.82 73.9181 19.0847 74.9695 23.4415C75.0713 23.8635 75.1455 24.2949 75.1896 24.7338V25.5711L76.0695 25.5908C78.8765 25.6534 81.1 27.8921 81.1 30.6039C81.1 33.355 78.8131 35.62 75.9477 35.62H54.0473C50.0809 35.62 46.9 32.4822 46.9 28.6526C46.9 24.8241 50.081 21.6851 54.0473 21.6851C54.4007 21.6851 54.7502 21.7116 55.0954 21.7605Z" fill="white" stroke="black" stroke-width="1.8"/>
<path d="M115.5 18.8471C115.5 21.9078 113.169 24.3 110.4 24.3C107.631 24.3 105.3 21.9078 105.3 18.8471C105.3 18.342 105.473 17.6235 105.816 16.7338C106.153 15.8616 106.625 14.8969 107.158 13.9232C108.224 11.9768 109.497 10.0587 110.312 8.87997C110.329 8.85553 110.345 8.84439 110.356 8.83845C110.369 8.83178 110.384 8.82807 110.4 8.82807C110.416 8.82807 110.431 8.83178 110.444 8.83845C110.455 8.84439 110.471 8.85553 110.488 8.87997C111.304 10.0587 112.576 11.9768 113.642 13.9232C114.175 14.8969 114.647 15.8616 114.984 16.7338C115.327 17.6235 115.5 18.342 115.5 18.8471Z" fill="#38ACFF" stroke="black" stroke-width="1.8"/>
<path d="M125.1 34.447C125.1 37.5078 122.769 39.9 120 39.9C117.231 39.9 114.9 37.5078 114.9 34.447C114.9 33.9419 115.073 33.2235 115.416 32.3338C115.753 31.4616 116.225 30.4969 116.758 29.5232C117.824 27.5768 119.096 25.6587 119.912 24.48C119.929 24.4555 119.945 24.4444 119.956 24.4384C119.969 24.4318 119.984 24.4281 120 24.4281C120.016 24.4281 120.031 24.4318 120.044 24.4384C120.055 24.4444 120.071 24.4555 120.088 24.48C120.904 25.6587 122.176 27.5768 123.242 29.5232C123.775 30.4969 124.247 31.4616 124.584 32.3338C124.927 33.2235 125.1 33.9419 125.1 34.447Z" fill="#38ACFF" stroke="black" stroke-width="1.8"/>
<path d="M134.7 18.847C134.7 21.9078 132.369 24.3 129.6 24.3C126.831 24.3 124.5 21.9078 124.5 18.847C124.5 18.3419 124.673 17.6235 125.016 16.7338C125.353 15.8616 125.825 14.8969 126.358 13.9232C127.424 11.9768 128.696 10.0587 129.512 8.87996C129.529 8.85552 129.545 8.84438 129.556 8.83844C129.569 8.83176 129.584 8.82805 129.6 8.82805C129.616 8.82805 129.631 8.83176 129.644 8.83844C129.655 8.84438 129.671 8.85552 129.688 8.87996C130.503 10.0587 131.776 11.9768 132.842 13.9232C133.375 14.8969 133.847 15.8616 134.184 16.7338C134.527 17.6235 134.7 18.3419 134.7 18.847Z" fill="#38ACFF" stroke="black" stroke-width="1.8"/>
<path d="M166.505 19.5008L167.153 19.5964L167.443 19.0094C169.239 15.378 172.923 12.9 177.167 12.9C182.3 12.9 186.62 16.5315 187.757 21.4368C187.867 21.9135 187.948 22.4012 187.995 22.8974V23.736L188.874 23.7564C191.866 23.826 194.3 26.3231 194.3 29.4265C194.3 32.5753 191.797 35.1 188.744 35.1H165.384C161.156 35.1 157.7 31.6055 157.7 27.2584C157.7 22.9125 161.156 19.4168 165.384 19.4168C165.762 19.4168 166.136 19.4463 166.505 19.5008Z" fill="white" stroke="black" stroke-width="1.8"/>
<path d="M241.899 28.2355C241.899 33.3017 237.519 37.5002 231.999 37.5002C226.48 37.5002 222.1 33.3017 222.1 28.2355C222.1 27.3329 222.448 26.0984 223.092 24.6273C223.728 23.1775 224.613 21.5838 225.601 19.9906C227.575 16.8055 229.913 13.692 231.355 11.8476C231.689 11.4203 232.31 11.4203 232.644 11.8476C234.085 13.692 236.424 16.8055 238.398 19.9906C239.386 21.5838 240.271 23.1775 240.906 24.6273C241.551 26.0984 241.899 27.3329 241.899 28.2355Z" fill="#38ACFF" stroke="black" stroke-width="1.8"/>
<path d="M296.408 14.9813L296.408 14.9816L291.8 17.5716V12.4237C291.8 10.3449 290.075 8.70001 288 8.70001C285.924 8.70001 284.199 10.3449 284.199 12.4237V17.5716L279.592 14.9817C279.592 14.9817 279.592 14.9816 279.592 14.9816C277.788 13.9669 275.471 14.5603 274.415 16.3417L274.414 16.342C273.351 18.1365 273.991 20.4198 275.809 21.442L275.809 21.4422L280.361 24L275.809 26.5578L275.809 26.558C273.991 27.5802 273.351 29.8635 274.414 31.658L274.415 31.6584C275.124 32.8548 276.403 33.5126 277.703 33.5126C278.345 33.5126 278.996 33.352 279.591 33.019L279.592 33.0184L284.199 30.4284V35.5763C284.199 37.6551 285.924 39.3 288 39.3C290.075 39.3 291.8 37.6551 291.8 35.5763V30.4284L296.408 33.0184L296.409 33.019C297.003 33.352 297.654 33.5126 298.296 33.5126C299.596 33.5126 300.875 32.8548 301.585 31.6584C302.65 29.8629 302.007 27.5798 300.191 26.558L300.19 26.5578L295.638 24L300.19 21.4422L300.191 21.442C302.007 20.4203 302.65 18.1372 301.585 16.3417C300.528 14.5596 298.211 13.9689 296.408 14.9813Z" fill="white" stroke="black" stroke-width="1.8"/>
<path d="M343.1 23.5059C343.1 27.9109 339.484 31.5 335 31.5C330.516 31.5 326.9 27.9109 326.9 23.5059C326.9 22.7375 327.18 21.6797 327.708 20.4093C328.228 19.1584 328.954 17.7813 329.766 16.4004C331.39 13.6397 333.322 10.9312 334.536 9.29643C334.774 8.9761 335.226 8.9761 335.464 9.29643C336.678 10.9312 338.61 13.6397 340.234 16.4004C341.046 17.7813 341.772 19.1584 342.292 20.4093C342.82 21.6797 343.1 22.7375 343.1 23.5059Z" fill="#38ACFF" stroke="black" stroke-width="1.8"/>
<path d="M355.593 19.9571L355.593 19.9574L352.073 21.9726V17.9531C352.073 16.1496 350.6 14.7 348.8 14.7C347 14.7 345.526 16.1496 345.526 17.9531V21.9726L342.007 19.9575C342.007 19.9575 342.007 19.9574 342.007 19.9574C340.445 19.063 338.446 19.5913 337.54 21.1478L337.54 21.1481C336.633 22.7078 337.173 24.6987 338.739 25.5956L338.739 25.5958L342.241 27.6L338.739 29.6042L338.739 29.6044C337.173 30.5013 336.633 32.4922 337.54 34.0519L337.54 34.0523C338.149 35.0969 339.25 35.6771 340.375 35.6771C340.931 35.6771 341.494 35.5356 342.006 35.2432L342.007 35.2426L345.526 33.2274V37.2469C345.526 39.0504 347 40.5 348.8 40.5C350.6 40.5 352.073 39.0504 352.073 37.2469V33.2274L355.593 35.2426L355.594 35.2432C356.106 35.5356 356.668 35.6771 357.224 35.6771C358.35 35.6771 359.451 35.0969 360.059 34.0523C360.968 32.4916 360.425 30.5008 358.86 29.6044L358.86 29.6042L355.358 27.6L358.86 25.5958L358.86 25.5956C360.425 24.6992 360.969 22.7082 360.059 21.1475C359.152 19.5905 357.153 19.0648 355.593 19.9571Z" fill="white" stroke="black" stroke-width="1.8"/>
</svg>
