<svg width="40" height="40" viewBox="0 0 40 40" fill="none" xmlns="http://www.w3.org/2000/svg">
<path d="M35.2539 16C35.2539 19.4518 32.4557 22.25 29.0039 22.25C25.5521 22.25 22.7539 19.4518 22.7539 16C22.7539 12.5482 25.5521 9.75 29.0039 9.75C32.4557 9.75 35.2539 12.5482 35.2539 16Z" fill="#FF800A" stroke="black" stroke-width="1.5"/>
<path d="M12.5795 18.134L13.1074 18.2088L13.3515 17.7349C14.7394 15.0403 17.599 13.1836 20.9116 13.1836C24.9214 13.1836 28.265 15.9041 29.1413 19.5347C29.2261 19.8864 29.288 20.246 29.3247 20.6117V21.3095L30.0579 21.3259C32.3971 21.3781 34.25 23.2437 34.25 25.5034C34.25 27.7961 32.3443 29.6836 29.9564 29.6836H11.706C8.40074 29.6836 5.75 27.0687 5.75 23.8774C5.75 20.687 8.40081 18.0712 11.706 18.0712C12.0006 18.0712 12.2918 18.0933 12.5795 18.134Z" fill="white" stroke="black" stroke-width="1.5"/>
</svg>
