<svg width="12" height="12" viewBox="0 0 12 12" fill="none" xmlns="http://www.w3.org/2000/svg">
<path d="M5.4165 3.08332H6.58317V4.24999H5.4165V3.08332ZM5.4165 5.41666H6.58317V8.91666H5.4165V5.41666ZM5.99984 0.166656C2.77984 0.166656 0.166504 2.77999 0.166504 5.99999C0.166504 9.21999 2.77984 11.8333 5.99984 11.8333C9.21984 11.8333 11.8332 9.21999 11.8332 5.99999C11.8332 2.77999 9.21984 0.166656 5.99984 0.166656ZM5.99984 10.6667C3.42734 10.6667 1.33317 8.57249 1.33317 5.99999C1.33317 3.42749 3.42734 1.33332 5.99984 1.33332C8.57234 1.33332 10.6665 3.42749 10.6665 5.99999C10.6665 8.57249 8.57234 10.6667 5.99984 10.6667Z" fill="#C7C7CC"/>
</svg>
