<svg width="20" height="20" viewBox="0 0 20 20" fill="none" xmlns="http://www.w3.org/2000/svg">
<path fill-rule="evenodd" clip-rule="evenodd" d="M5 0C2.23858 0 0 2.23858 0 5V15C0 17.7614 2.23858 20 5 20H15C17.7614 20 20 17.7614 20 15V5C20 2.23858 17.7614 0 15 0H5ZM16.5303 6.53033C16.8232 6.23744 16.8232 5.76256 16.5303 5.46967C16.2374 5.17678 15.7626 5.17678 15.4697 5.46967L7.75 13.1893L4.53033 9.96967C4.23744 9.67678 3.76256 9.67678 3.46967 9.96967C3.17678 10.2626 3.17678 10.7374 3.46967 11.0303L7.21967 14.7803C7.51256 15.0732 7.98744 15.0732 8.28033 14.7803L16.5303 6.53033Z" fill="#38ACFF"/>
</svg>
