<svg width="16" height="17" viewBox="0 0 16 17" fill="none" xmlns="http://www.w3.org/2000/svg">
<g clip-path="url(#clip0_757_4337)">
<g filter="url(#filter0_d_757_4337)">
<path d="M8.00008 3.5C4.66675 3.5 1.82008 5.57333 0.666748 8.5C1.82008 11.4267 4.66675 13.5 8.00008 13.5C11.3334 13.5 14.1801 11.4267 15.3334 8.5C14.1801 5.57333 11.3334 3.5 8.00008 3.5ZM8.00008 11.8333C6.16008 11.8333 4.66675 10.34 4.66675 8.5C4.66675 6.66 6.16008 5.16667 8.00008 5.16667C9.84008 5.16667 11.3334 6.66 11.3334 8.5C11.3334 10.34 9.84008 11.8333 8.00008 11.8333ZM8.00008 6.5C6.89341 6.5 6.00008 7.39333 6.00008 8.5C6.00008 9.60667 6.89341 10.5 8.00008 10.5C9.10675 10.5 10.0001 9.60667 10.0001 8.5C10.0001 7.39333 9.10675 6.5 8.00008 6.5Z" fill="white"/>
</g>
</g>
<defs>
<filter id="filter0_d_757_4337" x="-3.33325" y="-0.5" width="22.6667" height="18" filterUnits="userSpaceOnUse" color-interpolation-filters="sRGB">
<feFlood flood-opacity="0" result="BackgroundImageFix"/>
<feColorMatrix in="SourceAlpha" type="matrix" values="0 0 0 0 0 0 0 0 0 0 0 0 0 0 0 0 0 0 127 0" result="hardAlpha"/>
<feOffset/>
<feGaussianBlur stdDeviation="2"/>
<feComposite in2="hardAlpha" operator="out"/>
<feColorMatrix type="matrix" values="0 0 0 0 0 0 0 0 0 0 0 0 0 0 0 0 0 0 0.25 0"/>
<feBlend mode="normal" in2="BackgroundImageFix" result="effect1_dropShadow_757_4337"/>
<feBlend mode="normal" in="SourceGraphic" in2="effect1_dropShadow_757_4337" result="shape"/>
</filter>
<clipPath id="clip0_757_4337">
<rect width="16" height="16" fill="white" transform="translate(0 0.5)"/>
</clipPath>
</defs>
</svg>
