<svg width="103" height="78" viewBox="0 0 103 78" fill="none" xmlns="http://www.w3.org/2000/svg">
<path d="M2.94141 58H10.7617V33.8281H13.6328V27.7578H10.543V26.3906C10.543 24.9688 11.3359 24.4219 12.5117 24.4219C12.9219 24.4219 13.2773 24.4766 13.6328 24.5859V18.625C13.0039 18.4062 12.0195 18.2422 10.8711 18.2422C6.11328 18.2422 2.94141 20.7031 2.94141 26.0898V27.7578H0.371094V33.8281H2.94141V58ZM16.2461 58H24.0664V27.7578H16.2461V58ZM15.8633 22.5625C15.8633 25.0234 17.6953 26.8555 20.1562 26.8555C22.6445 26.8555 24.4766 25.0234 24.4766 22.5625C24.4766 20.0195 22.6445 18.2422 20.1562 18.2422C17.6953 18.2422 15.8633 20.0195 15.8633 22.5625ZM35.3477 58.3281C37.125 58.3281 38.6016 57.9727 39.5586 57.5352V51.7383C39.1484 51.875 38.7656 51.957 38.3008 51.957C37.4258 51.957 36.6875 51.6289 36.6875 50.5078V33.8281H39.5586V27.7578H36.6875V20.1836L28.8945 22.2617V27.7578H26.2969V33.8281H28.8398V51.875C28.8398 56.5781 31.793 58.3281 35.3477 58.3281ZM44.0586 58H51.8789V33.8281H54.75V27.7578H51.6602V26.3906C51.6602 24.9688 52.4531 24.4219 53.6289 24.4219C54.0391 24.4219 54.3945 24.4766 54.75 24.5859V18.625C54.1211 18.4062 53.1367 18.2422 51.9883 18.2422C47.2305 18.2422 44.0586 20.7031 44.0586 26.0898V27.7578H41.4883V33.8281H44.0586V58ZM65.7305 58.3281C67.5078 58.3281 68.9844 57.9727 69.9414 57.5352V51.7383C69.5312 51.875 69.1484 51.957 68.6836 51.957C67.8086 51.957 67.0703 51.6289 67.0703 50.5078V33.8281H69.9414V27.7578H67.0703V20.1836L59.2773 22.2617V27.7578H56.6797V33.8281H59.2227V51.875C59.2227 56.5781 62.1758 58.3281 65.7305 58.3281ZM77.2852 59.3398V66.4766H85.0508V59.3398C85.0508 57.8906 85.625 57.2891 87.6211 57.2891L90.4102 27.7578H82.5352L81.1406 51.2461H81.0859L79.6641 27.7578H71.7344L74.6602 57.2891C76.4375 57.2891 77.2852 57.8906 77.2852 59.3398Z" fill="#0F0F10"/>
<circle cx="97" cy="20" r="6" fill="#37ABFF"/>
</svg>
