<svg width="136" height="47" viewBox="0 0 136 47" fill="none" xmlns="http://www.w3.org/2000/svg">
<path d="M8.59346 31.6172V47H0.114746V7.81622H17.7989V15.1443H8.59346V24.5314H17.1933V31.6172H8.59346Z" fill="#0B0B0B"/>
<path d="M30.0339 7.81622V47H21.5552V7.81622H30.0339Z" fill="#0B0B0B"/>
<path d="M32.8889 15.0231V7.81622H54.0857V15.0231H47.7266V47H39.2479V15.0231H32.8889Z" fill="#0B0B0B"/>
<path d="M65.2263 31.6172V47H56.7476V7.81622H74.4317V15.1443H65.2263V24.5314H73.8261V31.6172H65.2263Z" fill="#0B0B0B"/>
<path d="M76.8556 15.0231V7.81622H98.0524V15.0231H91.6934V47H83.2147V15.0231H76.8556Z" fill="#0B0B0B"/>
<path d="M124.334 7.81622L115.915 32.7073V47H107.437V32.7073L99.0186 7.81622H107.013L111.676 24.168L116.339 7.81622H124.334Z" fill="#0B0B0B"/>
<circle cx="131.782" cy="4.77526" r="4.12072" fill="#37ABFF"/>
</svg>
