<svg width="40" height="40" viewBox="0 0 40 40" fill="none" xmlns="http://www.w3.org/2000/svg">
<path d="M16.25 15.7059C16.25 18.2565 14.3074 20.25 12 20.25C9.6926 20.25 7.75 18.2565 7.75 15.7059C7.75 15.285 7.89387 14.6863 8.18017 13.9448C8.46083 13.218 8.85431 12.4141 9.29844 11.6027C10.1863 9.98069 11.2471 8.38228 11.9267 7.39998C11.9407 7.37962 11.9539 7.37033 11.9635 7.36538C11.9744 7.35982 11.9868 7.35673 12 7.35673C12.0132 7.35673 12.0256 7.35982 12.0365 7.36538C12.0461 7.37033 12.0593 7.37961 12.0733 7.39998C12.7529 8.38228 13.8137 9.98069 14.7016 11.6027C15.1457 12.4141 15.5392 13.218 15.8198 13.9448C16.1061 14.6863 16.25 15.285 16.25 15.7059Z" fill="#38ACFF" stroke="black" stroke-width="1.5"/>
<path d="M24.25 28.7059C24.25 31.2565 22.3074 33.25 20 33.25C17.6926 33.25 15.75 31.2565 15.75 28.7059C15.75 28.285 15.8939 27.6863 16.1802 26.9448C16.4608 26.218 16.8543 25.4141 17.2984 24.6027C18.1863 22.9807 19.2471 21.3823 19.9267 20.4C19.9407 20.3796 19.9539 20.3703 19.9635 20.3654C19.9744 20.3598 19.9868 20.3567 20 20.3567C20.0132 20.3567 20.0256 20.3598 20.0365 20.3654C20.0461 20.3703 20.0593 20.3796 20.0733 20.4C20.7529 21.3823 21.8137 22.9807 22.7016 24.6027C23.1457 25.4141 23.5392 26.218 23.8198 26.9448C24.1061 27.6863 24.25 28.285 24.25 28.7059Z" fill="#38ACFF" stroke="black" stroke-width="1.5"/>
<path d="M32.25 15.7059C32.25 18.2565 30.3074 20.25 28 20.25C25.6926 20.25 23.75 18.2565 23.75 15.7059C23.75 15.285 23.8939 14.6863 24.1802 13.9448C24.4608 13.218 24.8543 12.4141 25.2984 11.6027C26.1863 9.98069 27.2471 8.38228 27.9267 7.39998C27.9407 7.37962 27.9539 7.37033 27.9635 7.36538C27.9744 7.35982 27.9868 7.35673 28 7.35673C28.0132 7.35673 28.0256 7.35982 28.0365 7.36538C28.0461 7.37033 28.0593 7.37961 28.0733 7.39998C28.7529 8.38228 29.8137 9.98069 30.7016 11.6027C31.1457 12.4141 31.5392 13.218 31.8198 13.9448C32.1061 14.6863 32.25 15.285 32.25 15.7059Z" fill="#38ACFF" stroke="black" stroke-width="1.5"/>
</svg>
