<svg width="32" height="32" viewBox="0 0 32 32" fill="none" xmlns="http://www.w3.org/2000/svg">
<g clip-path="url(#clip0_1981_5707)">
<mask id="path-1-outside-1_1981_5707" maskUnits="userSpaceOnUse" x="0.666504" y="2" width="30" height="27" fill="black">
<rect fill="white" x="0.666504" y="2" width="30" height="27"/>
<path d="M22.9998 26.6667H18.6665H13.3332H8.99984C8.26346 26.6667 7.6665 26.0697 7.6665 25.3333V17.3333C7.6665 16.597 7.06955 16 6.33317 16H3.96948C3.51124 16 3.29439 15.4349 3.635 15.1284L15.1079 4.80276C15.615 4.34639 16.3847 4.34639 16.8918 4.80276L28.3647 15.1284C28.7053 15.4349 28.4884 16 28.0302 16H25.6665C24.9301 16 24.3332 16.597 24.3332 17.3333V25.3333C24.3332 26.0697 23.7362 26.6667 22.9998 26.6667Z"/>
</mask>
<path d="M22.9998 26.6667H18.6665H13.3332H8.99984C8.26346 26.6667 7.6665 26.0697 7.6665 25.3333V17.3333C7.6665 16.597 7.06955 16 6.33317 16H3.96948C3.51124 16 3.29439 15.4349 3.635 15.1284L15.1079 4.80276C15.615 4.34639 16.3847 4.34639 16.8918 4.80276L28.3647 15.1284C28.7053 15.4349 28.4884 16 28.0302 16H25.6665C24.9301 16 24.3332 16.597 24.3332 17.3333V25.3333C24.3332 26.0697 23.7362 26.6667 22.9998 26.6667Z" stroke="black" stroke-width="4" mask="url(#path-1-outside-1_1981_5707)"/>
</g>
<defs>
<clipPath id="clip0_1981_5707">
<rect width="32" height="32" fill="white"/>
</clipPath>
</defs>
</svg>
