<svg width="40" height="40" viewBox="0 0 40 40" fill="none" xmlns="http://www.w3.org/2000/svg">
<mask id="path-1-inside-1_1361_4037" fill="white">
<path d="M20 19.5882C20 23.6816 16.6421 27 12.5 27C8.35786 27 5 23.6816 5 19.5882C5 16.4265 9.4746 10.0421 11.5114 7.29984C12.0095 6.62915 12.9905 6.62915 13.4886 7.29984C15.5254 10.0421 20 16.4265 20 19.5882Z"/>
</mask>
<path d="M20 19.5882C20 23.6816 16.6421 27 12.5 27C8.35786 27 5 23.6816 5 19.5882C5 16.4265 9.4746 10.0421 11.5114 7.29984C12.0095 6.62915 12.9905 6.62915 13.4886 7.29984C15.5254 10.0421 20 16.4265 20 19.5882Z" fill="#38ACFF" stroke="black" stroke-width="3" mask="url(#path-1-inside-1_1361_4037)"/>
<mask id="path-2-outside-2_1361_4037" maskUnits="userSpaceOnUse" x="13" y="11" width="22" height="24" fill="black">
<rect fill="white" x="13" y="11" width="22" height="24"/>
<path d="M32.7345 18.0005C32.188 17.0617 30.979 16.7412 30.0331 17.282L25.9775 19.6041V14.9609C25.9775 13.8782 25.0917 13 23.9998 13C22.9078 13 22.022 13.8782 22.022 14.9609V19.6041L17.9664 17.282C17.0206 16.7402 15.8115 17.0617 15.2651 18.0005C14.7196 18.9383 15.0429 20.137 15.9887 20.6789L20.0443 23L15.9887 25.3211C15.0429 25.863 14.7196 27.0617 15.2651 27.9995C15.6314 28.6287 16.296 28.9809 16.9796 28.9809C17.3149 28.9809 17.6552 28.8956 17.9664 28.718L22.022 26.3959V31.0391C22.022 32.1218 22.9078 33 23.9998 33C25.0917 33 25.9775 32.1218 25.9775 31.0391V26.3959L30.0331 28.718C30.3444 28.8956 30.6847 28.9809 31.02 28.9809C31.7036 28.9809 32.3682 28.6287 32.7345 27.9995C33.281 27.0617 32.9567 25.863 32.0109 25.3211L27.9553 23L32.0109 20.6789C32.9567 20.137 33.281 18.9383 32.7345 18.0005V18.0005Z"/>
</mask>
<path d="M32.7345 18.0005C32.188 17.0617 30.979 16.7412 30.0331 17.282L25.9775 19.6041V14.9609C25.9775 13.8782 25.0917 13 23.9998 13C22.9078 13 22.022 13.8782 22.022 14.9609V19.6041L17.9664 17.282C17.0206 16.7402 15.8115 17.0617 15.2651 18.0005C14.7196 18.9383 15.0429 20.137 15.9887 20.6789L20.0443 23L15.9887 25.3211C15.0429 25.863 14.7196 27.0617 15.2651 27.9995C15.6314 28.6287 16.296 28.9809 16.9796 28.9809C17.3149 28.9809 17.6552 28.8956 17.9664 28.718L22.022 26.3959V31.0391C22.022 32.1218 22.9078 33 23.9998 33C25.0917 33 25.9775 32.1218 25.9775 31.0391V26.3959L30.0331 28.718C30.3444 28.8956 30.6847 28.9809 31.02 28.9809C31.7036 28.9809 32.3682 28.6287 32.7345 27.9995C33.281 27.0617 32.9567 25.863 32.0109 25.3211L27.9553 23L32.0109 20.6789C32.9567 20.137 33.281 18.9383 32.7345 18.0005V18.0005Z" fill="white"/>
<path d="M32.7345 18.0005C32.188 17.0617 30.979 16.7412 30.0331 17.282L25.9775 19.6041V14.9609C25.9775 13.8782 25.0917 13 23.9998 13C22.9078 13 22.022 13.8782 22.022 14.9609V19.6041L17.9664 17.282C17.0206 16.7402 15.8115 17.0617 15.2651 18.0005C14.7196 18.9383 15.0429 20.137 15.9887 20.6789L20.0443 23L15.9887 25.3211C15.0429 25.863 14.7196 27.0617 15.2651 27.9995C15.6314 28.6287 16.296 28.9809 16.9796 28.9809C17.3149 28.9809 17.6552 28.8956 17.9664 28.718L22.022 26.3959V31.0391C22.022 32.1218 22.9078 33 23.9998 33C25.0917 33 25.9775 32.1218 25.9775 31.0391V26.3959L30.0331 28.718C30.3444 28.8956 30.6847 28.9809 31.02 28.9809C31.7036 28.9809 32.3682 28.6287 32.7345 27.9995C33.281 27.0617 32.9567 25.863 32.0109 25.3211L27.9553 23L32.0109 20.6789C32.9567 20.137 33.281 18.9383 32.7345 18.0005V18.0005Z" stroke="black" stroke-width="3" mask="url(#path-2-outside-2_1361_4037)"/>
</svg>
