<svg width="40" height="40" viewBox="0 0 40 40" fill="none" xmlns="http://www.w3.org/2000/svg">
<path d="M19.25 19.5882C19.25 23.2591 16.2363 26.25 12.5 26.25C8.76369 26.25 5.75 23.2591 5.75 19.5882C5.75 18.9479 5.98359 18.0664 6.42356 17.0077C6.85676 15.9653 7.46128 14.8178 8.13832 13.667C9.49185 11.3665 11.1017 9.10931 12.1135 7.74703C12.3117 7.48009 12.6883 7.48009 12.8865 7.74703C13.8983 9.10931 15.5081 11.3665 16.8617 13.667C17.5387 14.8178 18.1432 15.9653 18.5764 17.0077C19.0164 18.0664 19.25 18.9479 19.25 19.5882Z" fill="#38ACFF" stroke="black" stroke-width="1.5"/>
<path d="M29.6604 16.6312L29.6608 16.631C30.9612 15.8874 32.627 16.3254 33.3825 17.6229L29.6604 16.6312ZM29.6604 16.6312L26.7275 18.3105M29.6604 16.6312L26.7275 18.3105M26.7275 18.3105V14.9609C26.7275 13.458 25.4999 12.25 23.9998 12.25C22.4997 12.25 21.272 13.458 21.272 14.9609V18.3105L18.3392 16.6312C18.3392 16.6312 18.3392 16.6312 18.3391 16.6312C17.0378 15.8858 15.3719 16.3261 14.6169 17.6232L14.6167 17.6234C13.8607 18.9232 14.3112 20.5823 15.6159 21.3297L15.6161 21.3298L18.5344 23L15.6161 24.6702L15.6159 24.6703C14.3112 25.4177 13.8607 27.0768 14.6167 28.3766L14.6169 28.3769C15.1238 29.2474 16.0416 29.7309 16.9796 29.7309C17.4425 29.7309 17.9113 29.613 18.3382 29.3694L18.3391 29.3688L21.272 27.6895V31.0391C21.272 32.542 22.4997 33.75 23.9998 33.75C25.4999 33.75 26.7275 32.542 26.7275 31.0391V27.6895L29.6604 29.3688L29.6614 29.3694C30.0882 29.613 30.557 29.7309 31.02 29.7309C31.9579 29.7309 32.8756 29.2475 33.3825 28.3771C34.1404 27.0765 33.6877 25.4174 32.3837 24.6703L32.3834 24.6702L29.4652 23L32.3834 21.3298L32.3837 21.3297C33.6876 20.5827 34.1404 18.9237 33.3827 17.6232L26.7275 18.3105Z" fill="white" stroke="black" stroke-width="1.5"/>
</svg>
