<svg width="40" height="40" viewBox="0 0 40 40" fill="none" xmlns="http://www.w3.org/2000/svg">
<path d="M12.0875 16.2507L12.6274 16.3304L12.8693 15.8411C14.3656 12.815 17.436 10.75 20.9722 10.75C25.2502 10.75 28.8503 13.7762 29.7974 17.8639C29.8894 18.2612 29.9564 18.6676 29.996 19.0811V19.78L30.7285 19.797C33.222 19.855 35.2496 21.936 35.2496 24.5221C35.2496 27.1461 33.1645 29.25 30.6198 29.25H11.153C7.62978 29.25 4.75 26.3379 4.75 22.7153C4.75 19.0938 7.62985 16.1806 11.153 16.1806C11.4681 16.1806 11.7797 16.2053 12.0875 16.2507Z" fill="white" stroke="black" stroke-width="1.5"/>
</svg>
